<svg width="22" height="22" viewBox="0 0 22 22" fill="none" xmlns="http://www.w3.org/2000/svg">
<rect width="22" height="22" rx="11" fill="#5B9CFF"/>
<path d="M11.3086 18.1953C8.28125 18.1953 6.13281 16.5547 6.07422 14.1719H8.63281C8.71094 15.3047 9.84375 16.0469 11.3086 16.0469C12.8711 16.0469 13.9844 15.1875 13.9844 13.9375C13.9844 12.668 12.8906 11.75 11.0547 11.75H9.78516V9.79688H11.0547C12.5586 9.79688 13.6133 8.95703 13.5938 7.72656C13.6133 6.53516 12.7148 5.73438 11.3281 5.73438C10 5.73438 8.84766 6.47656 8.80859 7.66797H6.36719C6.42578 5.28516 8.57422 3.66406 11.3477 3.66406C14.2188 3.66406 16.0742 5.42188 16.0547 7.58984C16.0742 9.17188 15.0195 10.3242 13.4766 10.6367V10.7539C15.4688 11.0273 16.6016 12.2969 16.582 14.0742C16.6016 16.457 14.375 18.1953 11.3086 18.1953Z" fill="white"/>
</svg>
