<svg width="328" height="105" viewBox="0 0 328 105" fill="none" xmlns="http://www.w3.org/2000/svg">
<g clip-path="url(#clip0_1397_19091)">
<path d="M17 38.8906V62.2167C17 64.894 18.3855 67.3739 20.6682 68.7817L72.2281 100.58C80.4553 105.659 90.8992 105.474 98.9482 100.12L151.029 65.4531C153.18 64.0191 154.473 61.6115 154.473 59.0329V38.8972H17V38.8906Z" fill="#EBEEF2"/>
<path d="M85.7326 79.7126C83.2717 79.7126 80.8636 79.0219 78.7787 77.7195L19.183 40.4346C18.6222 40.0794 18.3056 39.5005 18.3188 38.8427C18.332 38.1849 18.6684 37.6126 19.2424 37.2837L77.6308 3.53128C80.1246 2.07752 82.9748 1.31445 85.8645 1.31445C88.7674 1.31445 91.6242 2.08409 94.1312 3.53786L152.236 37.2771C152.81 37.606 153.14 38.1783 153.153 38.8361C153.166 39.4939 152.849 40.0794 152.289 40.428L92.6864 77.7195C90.6016 79.0219 88.1934 79.7126 85.7326 79.7126Z" fill="white"/>
<path d="M85.8646 2.63125C88.53 2.63125 91.1624 3.34169 93.465 4.67705L151.57 38.4097C151.741 38.5084 151.827 38.6597 151.834 38.857C151.834 39.0544 151.754 39.2057 151.589 39.3109L91.9871 76.6023C90.1134 77.7733 87.9494 78.3982 85.7326 78.3982C83.5158 78.3982 81.3518 77.7798 79.4781 76.6023L19.8824 39.3175C19.7175 39.2122 19.6317 39.0609 19.6383 38.8636C19.6449 38.6663 19.7307 38.515 19.9022 38.4163L78.2906 4.6639C80.5865 3.33511 83.2058 2.63125 85.8646 2.63125ZM85.8646 0C82.7901 0 79.7157 0.795954 76.9645 2.38786L18.5761 36.1403C16.5111 37.3309 16.4649 40.2845 18.4838 41.5475L78.0729 78.8323C80.415 80.2993 83.0738 81.0294 85.7326 81.0294C88.3914 81.0294 91.0503 80.2993 93.3924 78.8323L152.995 41.5409C155.014 40.2779 154.961 37.3309 152.902 36.1403L94.7977 2.40102C92.0399 0.802532 88.9522 0 85.8646 0Z" fill="#EBEEF2"/>
<path d="M85.6143 76.9629L85.6143 84.1988" stroke="#BAC0C5" stroke-width="4.63393" stroke-miterlimit="10" stroke-linecap="round"/>
</g>
<g clip-path="url(#clip1_1397_19091)">
<path d="M190 38.8906V62.2167C190 64.894 191.385 67.3739 193.668 68.7817L245.228 100.58C253.455 105.659 263.899 105.474 271.948 100.12L324.029 65.4531C326.18 64.0191 327.473 61.6115 327.473 59.0329V38.8972H190V38.8906Z" fill="#EBEEF2"/>
<path d="M258.733 79.7126C256.272 79.7126 253.864 79.0219 251.779 77.7195L192.183 40.4346C191.622 40.0794 191.306 39.5005 191.319 38.8427C191.332 38.1849 191.668 37.6126 192.242 37.2837L250.631 3.53128C253.125 2.07752 255.975 1.31445 258.865 1.31445C261.767 1.31445 264.624 2.08409 267.131 3.53786L325.236 37.2771C325.81 37.606 326.14 38.1783 326.153 38.8361C326.166 39.4939 325.849 40.0794 325.289 40.428L265.686 77.7195C263.602 79.0219 261.193 79.7126 258.733 79.7126Z" fill="white"/>
<path d="M258.865 2.63125C261.53 2.63125 264.162 3.34169 266.465 4.67705L324.57 38.4097C324.741 38.5084 324.827 38.6597 324.834 38.857C324.834 39.0544 324.754 39.2057 324.589 39.3109L264.987 76.6023C263.113 77.7733 260.949 78.3982 258.733 78.3982C256.516 78.3982 254.352 77.7798 252.478 76.6023L192.882 39.3175C192.718 39.2122 192.632 39.0609 192.638 38.8636C192.645 38.6663 192.731 38.515 192.902 38.4163L251.291 4.6639C253.587 3.33511 256.206 2.63125 258.865 2.63125ZM258.865 0C255.79 0 252.716 0.795954 249.964 2.38786L191.576 36.1403C189.511 37.3309 189.465 40.2845 191.484 41.5475L251.073 78.8323C253.415 80.2993 256.074 81.0294 258.733 81.0294C261.391 81.0294 264.05 80.2993 266.392 78.8323L325.995 41.5409C328.014 40.2779 327.961 37.3309 325.902 36.1403L267.798 2.40102C265.04 0.802532 261.952 0 258.865 0Z" fill="#EBEEF2"/>
<path d="M258.614 76.9629L258.614 84.1988" stroke="#FF0149" stroke-width="4.63393" stroke-miterlimit="10" stroke-linecap="round"/>
</g>
<g filter="url(#filter0_d_1397_19091)">
<mask id="path-9-inside-1_1397_19091" fill="white">
<path d="M101.242 32.6309C105.798 32.6309 109.491 36.3241 109.491 40.8799C109.491 45.4357 105.798 49.1288 101.242 49.1289H28.9717L26.876 52.4121C26.5723 52.8874 25.878 52.8873 25.5742 52.4121L23.4785 49.1289H14.249C9.69321 49.1289 6 45.4357 6 40.8799C6.00001 36.3241 9.69322 32.6309 14.249 32.6309H101.242Z"/>
</mask>
<path d="M101.242 32.6309C105.798 32.6309 109.491 36.3241 109.491 40.8799C109.491 45.4357 105.798 49.1288 101.242 49.1289H28.9717L26.876 52.4121C26.5723 52.8874 25.878 52.8873 25.5742 52.4121L23.4785 49.1289H14.249C9.69321 49.1289 6 45.4357 6 40.8799C6.00001 36.3241 9.69322 32.6309 14.249 32.6309H101.242Z" fill="white"/>
<path d="M101.242 32.6309L101.242 31.8585H101.242V32.6309ZM109.491 40.8799H110.264V40.8799L109.491 40.8799ZM101.242 49.1289V49.9012H101.242L101.242 49.1289ZM28.9717 49.1289V48.3566H28.5484L28.3207 48.7134L28.9717 49.1289ZM26.876 52.4121L27.5268 52.8279L27.527 52.8277L26.876 52.4121ZM25.5742 52.4121L24.9232 52.8277L24.9235 52.8281L25.5742 52.4121ZM23.4785 49.1289L24.1295 48.7134L23.9018 48.3566H23.4785V49.1289ZM14.249 49.1289L14.249 49.9012H14.249V49.1289ZM6 40.8799L5.22768 40.8799V40.8799H6ZM14.249 32.6309V31.8585H14.249L14.249 32.6309ZM101.242 32.6309L101.242 33.4032C105.371 33.4033 108.719 36.7507 108.719 40.8799L109.491 40.8799L110.264 40.8799C110.264 35.8976 106.224 31.8586 101.242 31.8585L101.242 32.6309ZM109.491 40.8799H108.719C108.719 45.0091 105.371 48.3565 101.242 48.3566L101.242 49.1289L101.242 49.9012C106.224 49.9011 110.264 45.8622 110.264 40.8799H109.491ZM101.242 49.1289V48.3566H28.9717V49.1289V49.9012H101.242V49.1289ZM28.9717 49.1289L28.3207 48.7134L26.225 51.9966L26.876 52.4121L27.527 52.8277L29.6227 49.5444L28.9717 49.1289ZM26.876 52.4121L26.2251 51.9963L26.225 51.9962L25.5742 52.4121L24.9235 52.8281C25.5308 53.7782 26.9193 53.7788 27.5268 52.8279L26.876 52.4121ZM25.5742 52.4121L26.2252 51.9966L24.1295 48.7134L23.4785 49.1289L22.8275 49.5444L24.9232 52.8277L25.5742 52.4121ZM23.4785 49.1289V48.3566H14.249V49.1289V49.9012H23.4785V49.1289ZM14.249 49.1289L14.249 48.3566C10.1198 48.3566 6.77232 45.0092 6.77232 40.8799H6H5.22768C5.22768 45.8622 9.26667 49.9012 14.249 49.9012L14.249 49.1289ZM6 40.8799L6.77232 40.8799C6.77233 36.7506 10.1198 33.4032 14.249 33.4032L14.249 32.6309L14.249 31.8585C9.26668 31.8586 5.22769 35.8975 5.22768 40.8799L6 40.8799ZM14.249 32.6309V33.4032H101.242V32.6309V31.8585H14.249V32.6309Z" fill="#5B9CFF" mask="url(#path-9-inside-1_1397_19091)"/>
</g>
<path d="M22.729 37.3425V45.5333H21.7335V37.3425H22.729ZM20.2129 38.0575V41.1256H17.3982V42.7729C18.6879 42.7638 19.8011 42.7005 21.0728 42.4832L21.1633 43.3068C19.7695 43.5512 18.5476 43.5965 17.0814 43.5965H16.3664V40.3292H19.1902V38.872H16.3574V38.0575H20.2129ZM30.9199 37.3425V42.9086H29.9605V37.3425H30.9199ZM29.2817 37.5144V42.1484H28.3223V39.9038H27.2272V39.0893H28.3223V37.5144H29.2817ZM28.6753 42.7005C28.6753 43.6146 29.7161 44.4834 31.3814 44.7097L30.9923 45.479C29.6935 45.298 28.6798 44.7233 28.1775 43.9223C27.6616 44.7233 26.6434 45.298 25.3447 45.479L24.9736 44.7097C26.6299 44.4834 27.6707 43.6146 27.6707 42.7005V42.4923H28.6753V42.7005ZM26.4488 38.8358C26.4488 39.7771 26.9285 40.6822 27.9603 41.1347L27.4263 41.9131C26.7158 41.6053 26.2361 41.0578 25.9601 40.3925C25.666 41.1075 25.1455 41.7185 24.3853 42.0398L23.8513 41.2795C24.9464 40.7908 25.4714 39.768 25.4714 38.8358V37.8584H26.4488V38.8358ZM40.9932 37.3425V45.5333H39.9976V41.0985H38.3323V43.5512H34.4406V37.976H35.4542V40.0124H37.3458V37.976H38.3323V40.2749H39.9976V37.3425H40.9932ZM35.4542 42.7457H37.3458V40.7998H35.4542V42.7457ZM49.6004 41.8044V42.6009H42.1245V41.8044H49.6004ZM48.8311 44.5468V45.3613H43.0658V43.0715H44.0523V44.5468H48.8311ZM48.7677 40.4378V41.2071H43.0839V37.623H48.7044V38.4014H44.0885V39.0349H48.5053V39.7862H44.0885V40.4378H48.7677ZM55.3023 37.8584L53.1935 45.7053H52.1798L54.2977 37.8584H55.3023ZM64.9774 37.3425V45.5243H64.018V37.3425H64.9774ZM63.3483 37.5144V45.117H62.3889V41.2614H61.4839V40.3654H62.3889V37.5144H63.3483ZM61.692 38.3109V39.1255H61.1128V42.6552C61.3707 42.6326 61.6151 42.6054 61.8459 42.5737L61.9092 43.3068C60.6241 43.5693 58.9406 43.5965 57.8998 43.5965L57.7822 42.7638L58.5243 42.7548V39.1255H57.9451V38.3109H61.692ZM59.4294 42.7367L60.1896 42.7095V39.1255H59.4294V42.7367ZM68.118 37.9398C69.2267 37.9398 70.0458 38.863 70.1906 40.3563H71.7473V37.3425H72.7429V45.5333H71.7473V41.1709H70.1996C70.091 42.7502 69.2584 43.7232 68.118 43.7232C66.8871 43.7232 66.0182 42.61 66.0182 40.827C66.0182 39.0621 66.8871 37.9398 68.118 37.9398ZM68.118 38.8449C67.4392 38.8449 66.9776 39.578 66.9867 40.827C66.9776 42.085 67.4392 42.8181 68.118 42.8181C68.7968 42.8181 69.2493 42.085 69.2584 40.827C69.2493 39.578 68.7968 38.8449 68.118 38.8449ZM80.7074 37.3515V42.3384H79.6938V37.3515H80.7074ZM78.0827 37.8403V40.2387H75.3132V41.1166C76.7161 41.1121 77.7071 41.0668 78.8792 40.8903L79.0059 41.6958C77.7117 41.904 76.6075 41.9402 75.0236 41.9402H74.3267V39.4875H77.0872V38.6639H74.3086V37.8403H78.0827ZM77.956 42.4832C79.6938 42.4832 80.7527 43.0353 80.7527 44.0037C80.7527 44.9541 79.6938 45.5152 77.956 45.5152C76.2093 45.5152 75.1594 44.9541 75.1594 44.0037C75.1594 43.0353 76.2093 42.4832 77.956 42.4832ZM77.956 43.2706C76.7975 43.2706 76.155 43.5241 76.155 44.0037C76.155 44.4744 76.7975 44.7278 77.956 44.7278C79.1055 44.7278 79.7481 44.4744 79.7481 44.0037C79.7481 43.5241 79.1055 43.2706 77.956 43.2706ZM90.9618 37.3425V45.5333H89.9662V41.0985H88.3009V43.5512H84.4091V37.976H85.4228V40.0124H87.3144V37.976H88.3009V40.2749H89.9662V37.3425H90.9618ZM85.4228 42.7457H87.3144V40.7998H85.4228V42.7457ZM99.569 41.8044V42.6009H92.0931V41.8044H99.569ZM98.7997 44.5468V45.3613H93.0344V43.0715H94.0209V44.5468H98.7997ZM98.7363 40.4378V41.2071H93.0525V37.623H98.6729V38.4014H94.0571V39.0349H98.4738V39.7862H94.0571V40.4378H98.7363Z" fill="#5B9CFF"/>
<circle cx="33" cy="64" r="16" fill="url(#paint0_radial_1397_19091)"/>
<circle cx="33" cy="64" r="4.5" fill="#3A88FF" stroke="white"/>
<defs>
<filter id="filter0_d_1397_19091" x="0.59375" y="27.2246" width="114.304" height="30.9492" filterUnits="userSpaceOnUse" color-interpolation-filters="sRGB">
<feFlood flood-opacity="0" result="BackgroundImageFix"/>
<feColorMatrix in="SourceAlpha" type="matrix" values="0 0 0 0 0 0 0 0 0 0 0 0 0 0 0 0 0 0 127 0" result="hardAlpha"/>
<feOffset/>
<feGaussianBlur stdDeviation="2.70312"/>
<feComposite in2="hardAlpha" operator="out"/>
<feColorMatrix type="matrix" values="0 0 0 0 0.355769 0 0 0 0 0.611955 0 0 0 0 1 0 0 0 0.21 0"/>
<feBlend mode="normal" in2="BackgroundImageFix" result="effect1_dropShadow_1397_19091"/>
<feBlend mode="normal" in="SourceGraphic" in2="effect1_dropShadow_1397_19091" result="shape"/>
</filter>
<radialGradient id="paint0_radial_1397_19091" cx="0" cy="0" r="1" gradientUnits="userSpaceOnUse" gradientTransform="translate(33 64) rotate(90) scale(16)">
<stop offset="0.316199" stop-color="#9FC5FF"/>
<stop offset="1" stop-color="#9FC5FF" stop-opacity="0"/>
</radialGradient>
<clipPath id="clip0_1397_19091">
<rect width="137.473" height="104.263" fill="white" transform="translate(17)"/>
</clipPath>
<clipPath id="clip1_1397_19091">
<rect width="137.473" height="104.263" fill="white" transform="translate(190)"/>
</clipPath>
</defs>
</svg>
