<svg width="69" height="69" viewBox="0 0 69 69" fill="none" xmlns="http://www.w3.org/2000/svg">
<mask id="mask0_834_15922" style="mask-type:luminance" maskUnits="userSpaceOnUse" x="0" y="0" width="69" height="69">
<path d="M34.8334 65.6667C38.8832 65.6717 42.8941 64.8764 46.6356 63.3266C50.3771 61.7767 53.7755 59.5029 56.6356 56.6356C59.5029 53.7755 61.7767 50.3771 63.3266 46.6356C64.8764 42.8941 65.6717 38.8832 65.6667 34.8334C65.6717 30.7835 64.8764 26.7726 63.3266 23.0311C61.7767 19.2896 59.5029 15.8912 56.6356 13.0311C53.7755 10.1639 50.3771 7.88999 46.6356 6.34014C42.8941 4.7903 38.8832 3.99503 34.8334 4.00002C30.7835 3.99503 26.7726 4.7903 23.0311 6.34014C19.2896 7.88999 15.8912 10.1639 13.0311 13.0311C10.1639 15.8912 7.88999 19.2896 6.34014 23.0311C4.7903 26.7726 3.99503 30.7835 4.00002 34.8334C3.99503 38.8832 4.7903 42.8941 6.34014 46.6356C7.88999 50.3771 10.1639 53.7755 13.0311 56.6356C15.8912 59.5029 19.2896 61.7767 23.0311 63.3266C26.7726 64.8764 30.7835 65.6717 34.8334 65.6667Z" fill="white" stroke="white" stroke-width="6.16667" stroke-linejoin="round"/>
<path d="M22.5 34.834L31.75 44.084L50.25 25.584" stroke="black" stroke-width="6.16667" stroke-linecap="round" stroke-linejoin="round"/>
</mask>
<g mask="url(#mask0_834_15922)">
<path d="M-2.16699 -2.16602H71.833V71.834H-2.16699V-2.16602Z" fill="#5B9CFF"/>
</g>
</svg>
