<svg width="30" height="30" viewBox="0 0 30 30" fill="none" xmlns="http://www.w3.org/2000/svg">
<circle cx="14.8077" cy="15.1925" r="14.8077" fill="#5B9CFF"/>
<path d="M16.8832 18.2685C17.3193 17.4769 17.5374 16.4592 17.5374 15.2154C17.5374 13.7615 17.2466 12.6631 16.6651 11.92C16.0835 11.1769 15.3324 10.8054 14.4116 10.8054C13.3455 10.8054 12.4651 11.2254 11.7705 12.0654C11.0759 12.8892 10.7285 14.0846 10.7285 15.6515C10.7285 17.1377 11.0355 18.2523 11.6493 18.9954C12.2632 19.7385 13.0628 20.0938 14.0482 20.0615L14.3632 20.0373L12.0128 16.4754L15.5262 16.2815L16.8832 18.2685ZM7.45739 15.8696C7.45739 14.2865 7.74008 12.9215 8.30547 11.7746C8.87085 10.6115 9.64624 9.70692 10.6316 9.06077C11.6332 8.39846 12.772 7.99461 14.0482 7.84923C14.2743 7.81692 14.6055 7.80077 15.0416 7.80077C16.2532 7.80077 17.3274 8.06731 18.2643 8.60038C19.2174 9.11731 19.9685 9.91692 20.5178 10.9992C21.067 12.0654 21.3416 13.39 21.3416 14.9731C21.3416 16.3623 21.1235 17.59 20.6874 18.6562C20.2674 19.7062 19.6697 20.5785 18.8943 21.2731L20.8812 24.1808H18.2643C17.8928 24.1808 17.5455 24.0919 17.2224 23.9142C16.9155 23.7527 16.6651 23.5185 16.4712 23.2115L16.1562 22.7512C15.4616 22.945 14.7428 23.0419 13.9997 23.0419C12.7397 23.0419 11.617 22.7754 10.6316 22.2423C9.64624 21.7092 8.87085 20.9096 8.30547 19.8435C7.74008 18.7612 7.45739 17.4365 7.45739 15.8696Z" fill="white"/>
</svg>
