<svg width="16" height="21" viewBox="0 0 16 21" fill="none" xmlns="http://www.w3.org/2000/svg">
<path d="M2.49031 0.613004L4.21304 0.102108C4.78159 -0.066237 5.39299 -0.0253915 5.93319 0.217025C6.47338 0.459442 6.90548 0.886874 7.14887 1.41959L8.35664 4.06155C8.56627 4.51989 8.62469 5.03129 8.52372 5.52397C8.42275 6.01664 8.16745 6.46583 7.79367 6.80849L5.95533 8.49339C5.70897 8.72347 5.89574 9.62016 6.79579 11.1546C7.69673 12.6899 8.39311 13.297 8.71417 13.2026L11.1226 12.4782C11.6108 12.3313 12.1335 12.3384 12.6174 12.4984C13.1013 12.6584 13.5221 12.9634 13.821 13.3705L15.5375 15.7107C15.8842 16.1832 16.0447 16.7635 15.9893 17.3437C15.9338 17.9239 15.6661 18.4646 15.236 18.8653L13.909 20.1014C13.4807 20.5004 12.9524 20.7805 12.378 20.9132C11.8036 21.0458 11.2038 21.0262 10.6397 20.8564C7.85948 20.0192 5.28473 17.5347 2.88075 13.4379C0.471427 9.33497 -0.438406 5.87418 0.19572 3.04676C0.323617 2.47703 0.603668 1.95117 1.00701 1.52337C1.41034 1.09557 1.92237 0.781315 2.49031 0.613004Z" fill="#5B9CFF"/>
</svg>
