<svg width="84" height="84" viewBox="0 0 84 84" fill="none" xmlns="http://www.w3.org/2000/svg">
<path d="M50.1774 33.3723C49.9881 32.5991 50.1117 31.7827 50.5213 31.1029C50.9308 30.423 51.5926 29.9353 52.3612 29.7471L50.933 23.9161C50.7437 23.1428 50.2567 22.4761 49.5794 22.0624C48.902 21.6487 48.0897 21.5221 47.3211 21.7103L19.8978 28.427C19.1293 28.6152 18.4674 29.1029 18.0579 29.7828C17.6484 30.4626 17.5247 31.279 17.7141 32.0522L19.1422 37.8832C19.9108 37.695 20.7231 37.8216 21.4004 38.2353C22.0778 38.6489 22.5647 39.3157 22.7541 40.0889C22.9435 40.8622 22.8198 41.6785 22.4103 42.3584C22.0008 43.0383 21.3389 43.526 20.5704 43.7142L21.9985 49.5452C22.1879 50.3184 22.6748 50.9852 23.3522 51.3989C24.0296 51.8125 24.8419 51.9392 25.6104 51.7509L53.0337 45.0343C53.8023 44.8461 54.4641 44.3584 54.8737 43.6785C55.2832 42.9986 55.4069 42.1823 55.2175 41.4091L53.7893 35.5781C53.0208 35.7663 52.2085 35.6397 51.5311 35.226C50.8538 34.8123 50.3668 34.1456 50.1774 33.3723Z" fill="#777777" fill-opacity="0.466667"/>
<path d="M57.6763 43.1942C57.6763 42.3981 57.9907 41.6346 58.5502 41.0717C59.1097 40.5088 59.8685 40.1925 60.6598 40.1925V34.1892C60.6598 33.3931 60.3455 32.6296 59.786 32.0667C59.2265 31.5037 58.4676 31.1875 57.6763 31.1875H29.4425C28.6512 31.1875 27.8923 31.5037 27.3328 32.0667C26.7733 32.6296 26.459 33.3931 26.459 34.1892V40.1925C27.2503 40.1925 28.0091 40.5088 28.5686 41.0717C29.1281 41.6346 29.4425 42.3981 29.4425 43.1942C29.4425 43.9903 29.1281 44.7537 28.5686 45.3167C28.0091 45.8796 27.2503 46.1958 26.459 46.1958V52.1992C26.459 52.9953 26.7733 53.7588 27.3328 54.3217C27.8923 54.8846 28.6512 55.2008 29.4425 55.2008H57.6763C58.4676 55.2008 59.2265 54.8846 59.786 54.3217C60.3455 53.7588 60.6598 52.9953 60.6598 52.1992V46.1958C59.8685 46.1958 59.1097 45.8796 58.5502 45.3167C57.9907 44.7537 57.6763 43.9903 57.6763 43.1942Z" fill="#D9D9D9"/>
<path d="M43.0028 38.4678C43.3466 37.6526 44.5018 37.6526 44.8456 38.4678L45.6314 40.3307C45.7757 40.673 46.0978 40.907 46.4679 40.9385L48.4824 41.1101C49.364 41.1852 49.7209 42.2838 49.0519 42.8627L47.5229 44.1857C47.2421 44.4287 47.119 44.8074 47.2034 45.1691L47.6628 47.138C47.8638 47.9996 46.9292 48.6786 46.1719 48.2212L44.4412 47.1759C44.1233 46.9839 43.7252 46.9839 43.4072 47.1759L41.6766 48.2212C40.9193 48.6786 39.9847 47.9996 40.1857 47.138L40.6451 45.1691C40.7294 44.8074 40.6064 44.4287 40.3255 44.1857L38.7966 42.8627C38.1275 42.2838 38.4845 41.1852 39.366 41.1101L41.3806 40.9385C41.7507 40.907 42.0728 40.673 42.2171 40.3307L43.0028 38.4678Z" fill="white"/>
<path d="M69.8499 14.7C66.223 10.9905 61.8905 8.04433 57.1076 6.03497C52.3246 4.0256 47.1879 2.99369 42 3.00003C20.4603 3.00003 3.00003 20.4603 3.00003 42C2.98792 52.211 6.99298 62.0171 14.1501 69.3M14.1501 69.3C17.777 73.0095 22.1095 75.9557 26.8924 77.965C31.6754 79.9744 36.8121 81.0063 42 81C63.5397 81 81 63.5397 81 42C81.011 31.7884 77.0046 21.9823 69.846 14.7L14.1501 69.3Z" stroke="#FF4B4B" stroke-width="5" stroke-linecap="round" stroke-linejoin="round"/>
</svg>
