<svg width="10" height="11" viewBox="0 0 10 11" fill="none" xmlns="http://www.w3.org/2000/svg">
<path opacity="0.3" d="M5.00963 1.2832C8.65576 1.2832 10.9346 5.12382 9.11152 8.19632C8.69581 8.89692 8.09789 9.47871 7.37786 9.88321C6.65783 10.2877 5.84106 10.5007 5.00963 10.5007C1.36351 10.5007 -0.915318 6.66007 0.907744 3.58757C1.32346 2.88697 1.92137 2.30519 2.6414 1.90069C3.36143 1.49619 4.17821 1.28322 5.00963 1.2832Z" fill="#5B9CFF"/>
<path d="M2.57085 0.755864C2.64063 0.873479 2.65955 1.01325 2.62342 1.14443C2.5873 1.27561 2.4991 1.38746 2.37823 1.45537C1.83073 1.76435 1.34435 2.16598 0.941985 2.64135C0.898835 2.69543 0.84498 2.74053 0.783605 2.774C0.722229 2.80748 0.654578 2.82863 0.584653 2.83623C0.514728 2.84382 0.443949 2.83769 0.3765 2.81821C0.309051 2.79872 0.246301 2.76628 0.191963 2.72279C0.137624 2.6793 0.0927994 2.62565 0.0601388 2.56501C0.0274782 2.50437 0.00764489 2.43798 0.00181179 2.36976C-0.0040213 2.30153 0.00426426 2.23286 0.0261784 2.16781C0.0480925 2.10275 0.0831903 2.04264 0.129397 1.99101C0.61076 1.42021 1.19391 0.938489 1.85088 0.568954C1.91073 0.53523 1.97682 0.513313 2.04537 0.504456C2.11392 0.495598 2.1836 0.499974 2.25041 0.517333C2.31723 0.534691 2.37987 0.564692 2.43476 0.605621C2.48966 0.64655 2.53572 0.697604 2.57032 0.755864H2.57085ZM8.16739 0.568954C8.82451 0.938286 9.40784 1.41983 9.88941 1.9905C9.97344 2.0958 10.0119 2.22884 9.99675 2.36133C9.98156 2.49383 9.91385 2.61534 9.80803 2.70003C9.70222 2.78472 9.56662 2.82592 9.43008 2.81486C9.29353 2.80381 9.1668 2.74138 9.07682 2.64084C8.67523 2.16487 8.18869 1.76328 7.64058 1.45537C7.51977 1.38733 7.43169 1.27538 7.39572 1.14415C7.35974 1.01292 7.37882 0.873154 7.44875 0.755608C7.51868 0.638062 7.63373 0.55236 7.7686 0.517356C7.90347 0.482351 8.04659 0.500912 8.16739 0.568954ZM5.00967 3.33113C4.88076 3.33114 4.75634 3.37719 4.66001 3.46054C4.56368 3.54388 4.50214 3.65873 4.48706 3.7833L4.48338 3.84321V5.88437C4.4818 5.99805 4.51916 6.10969 4.58969 6.20033L4.63705 6.25358L5.74542 7.33152C5.83991 7.42433 5.96728 7.4785 6.10147 7.48293C6.23567 7.48736 6.36652 7.44172 6.46726 7.35535C6.568 7.26897 6.631 7.1484 6.64337 7.01831C6.65574 6.88823 6.61654 6.75846 6.53379 6.65557L6.48959 6.60743L5.53595 5.67954V3.84321C5.53595 3.7074 5.4805 3.57715 5.38181 3.48111C5.28311 3.38508 5.14925 3.33113 5.00967 3.33113Z" fill="#5B9CFF"/>
</svg>
