<svg width="28" height="26" viewBox="0 0 28 26" fill="none" xmlns="http://www.w3.org/2000/svg">
<path d="M8.55556 0.554688C6.83958 0.554688 5.44444 1.94983 5.44444 3.6658V5.99913H3.11111C1.39514 5.99913 0 7.39427 0 9.11024V22.3325C0 24.0484 1.39514 25.4436 3.11111 25.4436H24.8889C26.6049 25.4436 28 24.0484 28 22.3325V9.11024C28 7.39427 26.6049 5.99913 24.8889 5.99913H22.5556V3.6658C22.5556 1.94983 21.1604 0.554688 19.4444 0.554688H8.55556ZM7.77778 3.6658C7.77778 3.23802 8.12778 2.88802 8.55556 2.88802H19.4444C19.8722 2.88802 20.2222 3.23802 20.2222 3.6658V7.1658C20.2222 7.81233 20.7424 8.33247 21.3889 8.33247H24.8889C25.3167 8.33247 25.6667 8.68247 25.6667 9.11024V22.3325C25.6667 22.7602 25.3167 23.1102 24.8889 23.1102H16.3333V19.2214C16.3333 18.3609 15.6382 17.6658 14.7778 17.6658H13.2222C12.3618 17.6658 11.6667 18.3609 11.6667 19.2214V23.1102H3.11111C2.68333 23.1102 2.33333 22.7602 2.33333 22.3325V9.11024C2.33333 8.68247 2.68333 8.33247 3.11111 8.33247H6.61111C7.25764 8.33247 7.77778 7.81233 7.77778 7.1658V3.6658ZM5.44444 11.4436C5.01667 11.4436 4.66667 11.7936 4.66667 12.2214V13.7769C4.66667 14.2047 5.01667 14.5547 5.44444 14.5547H7C7.42778 14.5547 7.77778 14.2047 7.77778 13.7769V12.2214C7.77778 11.7936 7.42778 11.4436 7 11.4436H5.44444ZM4.66667 16.888V18.4436C4.66667 18.8714 5.01667 19.2214 5.44444 19.2214H7C7.42778 19.2214 7.77778 18.8714 7.77778 18.4436V16.888C7.77778 16.4602 7.42778 16.1102 7 16.1102H5.44444C5.01667 16.1102 4.66667 16.4602 4.66667 16.888ZM20.2222 16.888V18.4436C20.2222 18.8714 20.5722 19.2214 21 19.2214H22.5556C22.9833 19.2214 23.3333 18.8714 23.3333 18.4436V16.888C23.3333 16.4602 22.9833 16.1102 22.5556 16.1102H21C20.5722 16.1102 20.2222 16.4602 20.2222 16.888ZM21 11.4436C20.5722 11.4436 20.2222 11.7936 20.2222 12.2214V13.7769C20.2222 14.2047 20.5722 14.5547 21 14.5547H22.5556C22.9833 14.5547 23.3333 14.2047 23.3333 13.7769V12.2214C23.3333 11.7936 22.9833 11.4436 22.5556 11.4436H21ZM12.8333 5.61024V7.1658H11.2778C10.85 7.1658 10.5 7.5158 10.5 7.94358V8.72135C10.5 9.14913 10.85 9.49913 11.2778 9.49913H12.8333V11.0547C12.8333 11.4825 13.1833 11.8325 13.6111 11.8325H14.3889C14.8167 11.8325 15.1667 11.4825 15.1667 11.0547V9.49913H16.7222C17.15 9.49913 17.5 9.14913 17.5 8.72135V7.94358C17.5 7.5158 17.15 7.1658 16.7222 7.1658H15.1667V5.61024C15.1667 5.18247 14.8167 4.83247 14.3889 4.83247H13.6111C13.1833 4.83247 12.8333 5.18247 12.8333 5.61024Z" fill="#5B9CFF"/>
</svg>
