<svg width="27" height="28" viewBox="0 0 27 28" fill="none" xmlns="http://www.w3.org/2000/svg">
<path d="M8.20459 23.7693V25.2768C8.20459 25.5752 8.32312 25.8613 8.53409 26.0723C8.74507 26.2833 9.03122 26.4018 9.32959 26.4018H18.3296C18.628 26.4018 18.9141 26.2833 19.1251 26.0723C19.3361 25.8613 19.4546 25.5752 19.4546 25.2768V23.7693C21.1648 22.7819 22.5849 21.3618 23.5723 19.6516C24.5597 17.9415 25.0795 16.0015 25.0796 14.0268C25.0796 13.7284 24.9611 13.4423 24.7501 13.2313C24.5391 13.0203 24.253 12.9018 23.9546 12.9018C23.934 12.213 23.737 11.541 23.3824 10.9501C23.0279 10.3592 22.5277 9.86911 21.9296 9.52679C21.7862 8.54685 21.2944 7.65143 20.5443 7.00469C19.7943 6.35794 18.8362 6.00322 17.8458 6.00554C17.4662 6.00664 17.0882 6.05578 16.7208 6.15179C15.9465 5.4125 14.9171 5 13.8465 5C12.7759 5 11.7464 5.4125 10.9721 6.15179C10.6048 6.05578 10.2268 6.00664 9.84709 6.00554C8.85285 5.99778 7.88938 6.35005 7.13462 6.99728C6.37986 7.64451 5.88479 8.54299 5.74084 9.52679C5.14067 9.86771 4.63819 10.3572 4.28162 10.9482C3.92504 11.5392 3.72635 12.2119 3.70459 12.9018C3.40622 12.9018 3.12007 13.0203 2.90909 13.2313C2.69812 13.4423 2.57959 13.7284 2.57959 14.0268C2.57964 16.0015 3.09948 17.9415 4.08688 19.6516C5.07427 21.3618 6.49442 22.7819 8.20459 23.7693ZM7.20334 11.3943L8.13709 11.1018L7.95709 10.0893C7.96003 9.847 8.01066 9.60765 8.10611 9.38493C8.20155 9.16221 8.33993 8.96047 8.51335 8.79123C8.68676 8.62199 8.89182 8.48857 9.11681 8.39858C9.34179 8.3086 9.5823 8.26382 9.82459 8.26679C10.1494 8.26582 10.4696 8.34299 10.7583 8.49179L11.6696 8.99804L12.2321 8.13179C12.408 7.86959 12.6458 7.65473 12.9244 7.50616C13.203 7.35758 13.5138 7.27986 13.8296 7.27986C14.1453 7.27986 14.4562 7.35758 14.7348 7.50616C15.0134 7.65473 15.2512 7.86959 15.4271 8.13179L15.9896 8.99804L16.9008 8.49179C17.1895 8.34299 17.5098 8.26582 17.8346 8.26679C18.3212 8.26067 18.7907 8.44588 19.1421 8.78254C19.4935 9.11919 19.6986 9.58038 19.7133 10.0668L19.5333 11.023L20.4558 11.338C20.7961 11.4445 21.0968 11.6503 21.3194 11.9289C21.5419 12.2076 21.676 12.5464 21.7046 12.9018H5.95459C5.98317 12.5464 6.11732 12.2076 6.33983 11.9289C6.56233 11.6503 6.86304 11.4445 7.20334 11.338V11.3943ZM22.7621 15.1518C22.5744 16.6247 22.0252 18.0282 21.1635 19.2374C20.3018 20.4465 19.1543 21.4237 17.8233 22.0818C17.6361 22.1761 17.479 22.3209 17.3696 22.4998C17.2603 22.6787 17.2031 22.8846 17.2046 23.0943V24.1518H10.4546V23.0943C10.456 22.8846 10.3989 22.6787 10.2896 22.4998C10.1802 22.3209 10.0231 22.1761 9.83584 22.0818C8.50486 21.4237 7.35738 20.4465 6.49567 19.2374C5.63396 18.0282 5.08478 16.6247 4.89709 15.1518H22.7621Z" fill="#5B9CFF"/>
</svg>
