<svg width="68" height="68" viewBox="0 0 68 68" fill="none" xmlns="http://www.w3.org/2000/svg">
<path d="M33.9993 68C52.567 68 68 52.6 68 34C68 15.4327 52.5329 0 33.9652 0C15.3662 0 0 15.4327 0 34C0 52.6 15.3989 68 33.9993 68ZM33.968 39.0006C32.2001 39.0006 31.2344 37.9666 31.1661 36.1988L30.6996 19.735C30.6328 17.9003 32.0323 16.6018 33.9324 16.6018C35.7999 16.6018 37.2321 17.9344 37.1667 19.7677L36.6988 36.2016C36.6319 38.0008 35.6321 39.002 33.9666 39.002M33.9666 51.2688C32.0323 51.2688 30.2317 49.7356 30.2317 47.6677C30.2317 45.5998 31.9996 44.0694 33.9666 44.0694C35.8994 44.0694 37.6986 45.5685 37.6986 47.6677C37.6986 49.7683 35.8653 51.2688 33.9666 51.2688Z" fill="#5B9CFF"/>
</svg>
