<svg width="27" height="28" viewBox="0 0 27 28" fill="none" xmlns="http://www.w3.org/2000/svg">
<path fill-rule="evenodd" clip-rule="evenodd" d="M22.3572 14.3368L13.3201 23.3346C12.1157 24.5105 10.4958 25.1635 8.8125 25.1516C7.12925 25.1396 5.51874 24.4638 4.33107 23.2709C3.14339 22.0781 2.47457 20.4646 2.46999 18.7813C2.46542 17.0981 3.12545 15.481 4.30661 14.2817L13.3437 5.28395C14.5482 4.10802 16.1681 3.45504 17.8514 3.46696C19.5346 3.47887 21.1451 4.15472 22.3328 5.34758C23.5205 6.54044 24.1893 8.15388 24.1939 9.83717C24.1984 11.5205 23.5384 13.1375 22.3572 14.3368ZM20.7822 6.89157C20.0078 6.11486 18.9568 5.67719 17.86 5.67466C16.7632 5.67213 15.7102 6.10494 14.9322 6.87807L5.89399 15.8758C5.11629 16.6501 4.67802 17.7016 4.6756 18.799C4.67317 19.8964 5.10678 20.9498 5.88105 21.7275C6.65532 22.5052 7.70681 22.9435 8.80422 22.9459C9.90162 22.9483 10.955 22.5147 11.7327 21.7404L20.7699 12.7427C21.5469 11.9682 21.9848 10.917 21.9873 9.81993C21.9899 8.72284 21.5568 7.66961 20.7834 6.89157H20.7822Z" fill="#5B9CFF"/>
<path fill-rule="evenodd" clip-rule="evenodd" d="M9.13285 10.0892C9.34382 9.87825 9.62992 9.75977 9.92823 9.75977C10.2265 9.75977 10.5126 9.87825 10.7236 10.0892L17.5299 16.8954C17.7348 17.1076 17.8482 17.3918 17.8456 17.6867C17.843 17.9817 17.7247 18.2639 17.5161 18.4724C17.3076 18.681 17.0254 18.7993 16.7304 18.8019C16.4355 18.8045 16.1513 18.6911 15.9391 18.4862L9.13285 11.6799C8.92195 11.4689 8.80347 11.1828 8.80347 10.8845C8.80347 10.5862 8.92195 10.3001 9.13285 10.0892Z" fill="#5B9CFF"/>
<rect x="17.4141" y="3.70703" width="9" height="10.9153" transform="rotate(42.7841 17.4141 3.70703)" fill="#5B9CFF"/>
</svg>
