<svg width="22" height="21" viewBox="0 0 22 21" fill="none" xmlns="http://www.w3.org/2000/svg">
<path d="M4 17.5C3.51875 17.5 3.10692 17.3288 2.7645 16.9864C2.42208 16.644 2.25058 16.2318 2.25 15.75V5.25C2.25 4.76875 2.4215 4.35692 2.7645 4.0145C3.1075 3.67208 3.51933 3.50058 4 3.5H18C18.4813 3.5 18.8934 3.6715 19.2364 4.0145C19.5794 4.3575 19.7506 4.76933 19.75 5.25V15.75C19.75 16.2312 19.5788 16.6434 19.2364 16.9864C18.894 17.3294 18.4818 17.5006 18 17.5H4ZM11 11.2219C11.0729 11.2219 11.1496 11.2108 11.2301 11.1886C11.3106 11.1665 11.387 11.1338 11.4594 11.0906L17.65 7.21875C17.7667 7.14583 17.8542 7.05483 17.9125 6.94575C17.9708 6.83667 18 6.71621 18 6.58438C18 6.29271 17.876 6.07396 17.6281 5.92813C17.3802 5.78229 17.125 5.78958 16.8625 5.95L11 9.625L5.1375 5.95C4.875 5.78958 4.61979 5.78608 4.37188 5.9395C4.12396 6.09292 4 6.30788 4 6.58438C4 6.73021 4.02917 6.85796 4.0875 6.96762C4.14583 7.07729 4.23333 7.161 4.35 7.21875L10.5406 11.0906C10.6135 11.1344 10.6903 11.1673 10.7708 11.1895C10.8512 11.2117 10.9277 11.2225 11 11.2219Z" fill="#5B9CFF"/>
</svg>
