<svg width="84" height="84" viewBox="0 0 84 84" fill="none" xmlns="http://www.w3.org/2000/svg">
<path d="M50.1774 37.3723C49.9881 36.5991 50.1117 35.7827 50.5213 35.1029C50.9308 34.423 51.5926 33.9353 52.3612 33.7471L50.933 27.9161C50.7437 27.1428 50.2567 26.4761 49.5794 26.0624C48.902 25.6487 48.0897 25.5221 47.3211 25.7103L19.8978 32.427C19.1293 32.6152 18.4674 33.1029 18.0579 33.7828C17.6484 34.4626 17.5247 35.279 17.7141 36.0522L19.1422 41.8832C19.9108 41.695 20.7231 41.8216 21.4004 42.2353C22.0778 42.6489 22.5647 43.3157 22.7541 44.0889C22.9435 44.8622 22.8198 45.6785 22.4103 46.3584C22.0008 47.0383 21.3389 47.526 20.5704 47.7142L21.9985 53.5452C22.1879 54.3184 22.6748 54.9852 23.3522 55.3989C24.0296 55.8125 24.8419 55.9392 25.6104 55.7509L53.0337 49.0343C53.8023 48.8461 54.4641 48.3584 54.8737 47.6785C55.2832 46.9986 55.4069 46.1823 55.2175 45.4091L53.7893 39.5781C53.0208 39.7663 52.2085 39.6397 51.5311 39.226C50.8538 38.8123 50.3668 38.1456 50.1774 37.3723Z" fill="#FFBB00"/>
<path d="M57.6763 47.1942C57.6763 46.3981 57.9907 45.6346 58.5502 45.0717C59.1097 44.5088 59.8685 44.1925 60.6598 44.1925V38.1892C60.6598 37.3931 60.3455 36.6296 59.786 36.0667C59.2265 35.5037 58.4676 35.1875 57.6763 35.1875H29.4425C28.6512 35.1875 27.8923 35.5037 27.3328 36.0667C26.7733 36.6296 26.459 37.3931 26.459 38.1892V44.1925C27.2503 44.1925 28.0091 44.5088 28.5686 45.0717C29.1281 45.6346 29.4425 46.3981 29.4425 47.1942C29.4425 47.9903 29.1281 48.7537 28.5686 49.3167C28.0091 49.8796 27.2503 50.1958 26.459 50.1958V56.1992C26.459 56.9953 26.7733 57.7588 27.3328 58.3217C27.8923 58.8846 28.6512 59.2008 29.4425 59.2008H57.6763C58.4676 59.2008 59.2265 58.8846 59.786 58.3217C60.3455 57.7588 60.6598 56.9953 60.6598 56.1992V50.1958C59.8685 50.1958 59.1097 49.8796 58.5502 49.3167C57.9907 48.7537 57.6763 47.9903 57.6763 47.1942Z" fill="#FFCC41"/>
<path d="M43.0028 42.4678C43.3466 41.6526 44.5018 41.6526 44.8456 42.4678L45.6314 44.3307C45.7757 44.673 46.0978 44.907 46.4679 44.9385L48.4824 45.1101C49.364 45.1852 49.7209 46.2838 49.0519 46.8627L47.5229 48.1857C47.2421 48.4287 47.119 48.8074 47.2034 49.1691L47.6628 51.138C47.8638 51.9996 46.9292 52.6786 46.1719 52.2212L44.4412 51.1759C44.1233 50.9839 43.7252 50.9839 43.4072 51.1759L41.6766 52.2212C40.9193 52.6786 39.9847 51.9996 40.1857 51.138L40.6451 49.1691C40.7294 48.8074 40.6064 48.4287 40.3255 48.1857L38.7966 46.8627C38.1275 46.2838 38.4845 45.1852 39.366 45.1101L41.3806 44.9385C41.7507 44.907 42.0728 44.673 42.2171 44.3307L43.0028 42.4678Z" fill="white"/>
<path d="M69.8499 14.7C66.223 10.9905 61.8905 8.04433 57.1076 6.03497C52.3246 4.0256 47.1879 2.99369 42 3.00003C20.4603 3.00003 3.00003 20.4603 3.00003 42C2.98792 52.211 6.99298 62.0171 14.1501 69.3M14.1501 69.3C17.777 73.0095 22.1095 75.9557 26.8924 77.965C31.6754 79.9744 36.8121 81.0063 42 81C63.5397 81 81 63.5397 81 42C81.011 31.7884 77.0046 21.9823 69.846 14.7L14.1501 69.3Z" stroke="#FF4B4B" stroke-width="5" stroke-linecap="round" stroke-linejoin="round"/>
</svg>
