<svg width="10" height="11" viewBox="0 0 10 11" fill="none" xmlns="http://www.w3.org/2000/svg">
<path d="M2.47017 0.5C2.67816 0.5 2.84666 0.662001 2.84666 0.862002V1.592C3.18065 1.586 3.55514 1.586 3.97662 1.586H5.98406C6.40505 1.586 6.77954 1.586 7.11353 1.5925V0.862501C7.11353 0.662501 7.28202 0.5 7.49002 0.5C7.69801 0.5 7.86651 0.662001 7.86651 0.862002V1.625C8.58898 1.6805 9.06347 1.81701 9.41146 2.15251C9.76045 2.48751 9.90244 2.94351 9.95994 3.63851L9.99994 4.00001H0.000244141V3.63801C0.0582424 2.94301 0.200238 2.48701 0.548727 2.15201C0.897217 1.81701 1.3712 1.68 2.09368 1.6245V0.862002C2.09368 0.662001 2.26218 0.5 2.47017 0.5Z" fill="#84AFFF"/>
<path opacity="0.5" d="M9.99985 6.50001V5.50001C9.99985 5.0805 9.99785 4.3325 9.99135 4H0.00514942C-0.00135038 4.3325 0.000149581 5.0805 0.000149581 5.50001V6.50001C0.000149581 8.38552 0.000149544 9.32852 0.586132 9.91402C1.17211 10.4995 2.11409 10.5 4.00003 10.5H5.99997C7.88491 10.5 8.82788 10.5 9.41386 9.91402C9.99985 9.32802 9.99985 8.38602 9.99985 6.50001Z" fill="#84AFFF"/>
<path d="M7.99982 8.00001C7.99982 8.13262 7.94714 8.2598 7.85338 8.35357C7.75961 8.44733 7.63244 8.50001 7.49983 8.50001C7.36723 8.50001 7.24005 8.44733 7.14629 8.35357C7.05252 8.2598 6.99985 8.13262 6.99985 8.00001C6.99985 7.8674 7.05252 7.74022 7.14629 7.64646C7.24005 7.55269 7.36723 7.50001 7.49983 7.50001C7.63244 7.50001 7.75961 7.55269 7.85338 7.64646C7.94714 7.74022 7.99982 7.8674 7.99982 8.00001ZM7.99982 6C7.99982 6.13261 7.94714 6.25979 7.85338 6.35356C7.75961 6.44733 7.63244 6.5 7.49983 6.5C7.36723 6.5 7.24005 6.44733 7.14629 6.35356C7.05252 6.25979 6.99985 6.13261 6.99985 6C6.99985 5.86739 7.05252 5.74022 7.14629 5.64645C7.24005 5.55268 7.36723 5.5 7.49983 5.5C7.63244 5.5 7.75961 5.55268 7.85338 5.64645C7.94714 5.74022 7.99982 5.86739 7.99982 6ZM5.49989 8.00001C5.49989 8.13262 5.44722 8.2598 5.35345 8.35357C5.25969 8.44733 5.13251 8.50001 4.99991 8.50001C4.8673 8.50001 4.74013 8.44733 4.64637 8.35357C4.5526 8.2598 4.49992 8.13262 4.49992 8.00001C4.49992 7.8674 4.5526 7.74022 4.64637 7.64646C4.74013 7.55269 4.8673 7.50001 4.99991 7.50001C5.13251 7.50001 5.25969 7.55269 5.35345 7.64646C5.44722 7.74022 5.49989 7.8674 5.49989 8.00001ZM5.49989 6C5.49989 6.13261 5.44722 6.25979 5.35345 6.35356C5.25969 6.44733 5.13251 6.5 4.99991 6.5C4.8673 6.5 4.74013 6.44733 4.64637 6.35356C4.5526 6.25979 4.49992 6.13261 4.49992 6C4.49992 5.86739 4.5526 5.74022 4.64637 5.64645C4.74013 5.55268 4.8673 5.5 4.99991 5.5C5.13251 5.5 5.25969 5.55268 5.35345 5.64645C5.44722 5.74022 5.49989 5.86739 5.49989 6ZM2.99997 8.00001C2.99997 8.13262 2.94729 8.2598 2.85353 8.35357C2.75976 8.44733 2.63259 8.50001 2.49998 8.50001C2.36738 8.50001 2.24021 8.44733 2.14644 8.35357C2.05268 8.2598 2 8.13262 2 8.00001C2 7.8674 2.05268 7.74022 2.14644 7.64646C2.24021 7.55269 2.36738 7.50001 2.49998 7.50001C2.63259 7.50001 2.75976 7.55269 2.85353 7.64646C2.94729 7.74022 2.99997 7.8674 2.99997 8.00001ZM2.99997 6C2.99997 6.13261 2.94729 6.25979 2.85353 6.35356C2.75976 6.44733 2.63259 6.5 2.49998 6.5C2.36738 6.5 2.24021 6.44733 2.14644 6.35356C2.05268 6.25979 2 6.13261 2 6C2 5.86739 2.05268 5.74022 2.14644 5.64645C2.24021 5.55268 2.36738 5.5 2.49998 5.5C2.63259 5.5 2.75976 5.55268 2.85353 5.64645C2.94729 5.74022 2.99997 5.86739 2.99997 6Z" fill="#84AFFF"/>
</svg>
