<svg width="89" height="89" viewBox="0 0 89 89" fill="none" xmlns="http://www.w3.org/2000/svg">
<circle cx="44.5" cy="44.5" r="44.5" fill="#EFF8FF"/>
<path d="M56.5936 37.0004C56.3334 35.9378 56.5033 34.8159 57.0661 33.8816C57.6289 32.9474 58.5384 32.2771 59.5946 32.0185L57.632 24.0053C57.3717 22.9427 56.7026 22.0264 55.7717 21.4579C54.8409 20.8894 53.7246 20.7154 52.6684 20.9741L14.9823 30.2043C13.9261 30.463 13.0166 31.1332 12.4538 32.0675C11.891 33.0018 11.721 34.1237 11.9813 35.1863L13.9439 43.1994C15.0001 42.9407 16.1164 43.1148 17.0472 43.6832C17.9781 44.2517 18.6473 45.168 18.9075 46.2306C19.1678 47.2932 18.9978 48.4151 18.435 49.3494C17.8722 50.2837 16.9627 50.9539 15.9065 51.2126L17.8692 59.2257C18.1294 60.2883 18.7986 61.2047 19.7294 61.7731C20.6603 62.3416 21.7766 62.5156 22.8328 62.2569L60.5189 53.0267C61.575 52.768 62.4846 52.0978 63.0473 51.1635C63.6101 50.2292 63.7801 49.1074 63.5198 48.0448L61.5572 40.0316C60.5011 40.2903 59.3848 40.1163 58.4539 39.5478C57.5231 38.9793 56.8539 38.063 56.5936 37.0004Z" fill="#FFBB00"/>
<path d="M66.9 50.5C66.9 49.406 67.332 48.3568 68.1009 47.5832C68.8698 46.8096 69.9126 46.375 71 46.375V38.125C71 37.031 70.568 35.9818 69.7991 35.2082C69.0302 34.4346 67.9874 34 66.9 34H28.1C27.0126 34 25.9698 34.4346 25.2009 35.2082C24.432 35.9818 24 37.031 24 38.125V46.375C25.0874 46.375 26.1302 46.8096 26.8991 47.5832C27.668 48.3568 28.1 49.406 28.1 50.5C28.1 51.594 27.668 52.6432 26.8991 53.4168C26.1302 54.1904 25.0874 54.625 24 54.625V62.875C24 63.969 24.432 65.0182 25.2009 65.7918C25.9698 66.5654 27.0126 67 28.1 67H66.9C67.9874 67 69.0302 66.5654 69.7991 65.7918C70.568 65.0182 71 63.969 71 62.875V54.625C69.9126 54.625 68.8698 54.1904 68.1009 53.4168C67.332 52.6432 66.9 51.594 66.9 50.5Z" fill="#FFCC41"/>
<path d="M47.0786 43.1846C47.4224 42.3694 48.5776 42.3694 48.9214 43.1846L50.4338 46.7705C50.5782 47.1128 50.9003 47.3468 51.2704 47.3783L55.1481 47.7086C56.0297 47.7837 56.3866 48.8823 55.7176 49.4612L52.7745 52.0077C52.4937 52.2508 52.3706 52.6294 52.455 52.9911L53.3392 56.7812C53.5402 57.6428 52.6056 58.3218 51.8483 57.8644L48.517 55.8523C48.1991 55.6602 47.8009 55.6602 47.483 55.8523L44.1517 57.8644C43.3944 58.3218 42.4598 57.6428 42.6608 56.7812L43.545 52.9911C43.6294 52.6294 43.5063 52.2508 43.2255 52.0077L40.2824 49.4612C39.6134 48.8823 39.9703 47.7837 40.8519 47.7086L44.7296 47.3783C45.0997 47.3468 45.4218 47.1128 45.5662 46.7705L47.0786 43.1846Z" fill="white"/>
</svg>
