<svg width="25" height="24" viewBox="0 0 25 24" fill="none" xmlns="http://www.w3.org/2000/svg">
<path d="M10.743 16.3132L6.5 12.0692L7.914 10.6552L10.743 13.4832L16.399 7.82617L17.814 9.24117L10.743 16.3132Z" fill="white"/>
<path fill-rule="evenodd" clip-rule="evenodd" d="M1.5 12C1.5 5.925 6.425 1 12.5 1C18.575 1 23.5 5.925 23.5 12C23.5 18.075 18.575 23 12.5 23C6.425 23 1.5 18.075 1.5 12ZM12.5 21C11.3181 21 10.1478 20.7672 9.05585 20.3149C7.96392 19.8626 6.97177 19.1997 6.13604 18.364C5.30031 17.5282 4.63738 16.5361 4.18508 15.4442C3.73279 14.3522 3.5 13.1819 3.5 12C3.5 10.8181 3.73279 9.64778 4.18508 8.55585C4.63738 7.46392 5.30031 6.47177 6.13604 5.63604C6.97177 4.80031 7.96392 4.13738 9.05585 3.68508C10.1478 3.23279 11.3181 3 12.5 3C14.8869 3 17.1761 3.94821 18.864 5.63604C20.5518 7.32387 21.5 9.61305 21.5 12C21.5 14.3869 20.5518 16.6761 18.864 18.364C17.1761 20.0518 14.8869 21 12.5 21Z" fill="white"/>
</svg>
