<svg width="16" height="16" viewBox="0 0 16 16" fill="none" xmlns="http://www.w3.org/2000/svg">
<path d="M1.6842 2.86315C1.6842 2.20799 2.20799 1.6842 2.86315 1.6842H8.92627C9.58142 1.6842 10.1052 2.20799 10.1052 2.86315V3.36841C10.1052 3.47899 10.127 3.58849 10.1693 3.69066C10.2116 3.79283 10.2737 3.88566 10.3519 3.96386C10.43 4.04206 10.5229 4.10408 10.625 4.1464C10.7272 4.18872 10.8367 4.21051 10.9473 4.21051C11.0579 4.21051 11.1674 4.18872 11.2696 4.1464C11.3717 4.10408 11.4646 4.04206 11.5428 3.96386C11.621 3.88566 11.683 3.79283 11.7253 3.69066C11.7676 3.58849 11.7894 3.47899 11.7894 3.36841V2.86315C11.7894 1.27831 10.5111 4.47438e-06 8.92627 4.47438e-06H2.86315C2.48697 -0.000661136 2.11435 0.0729419 1.76668 0.216592C1.41901 0.360243 1.10311 0.571115 0.837115 0.837115C0.571115 1.10311 0.360243 1.41901 0.216592 1.76668C0.0729419 2.11435 -0.000661136 2.48697 4.47438e-06 2.86315V8.92627C4.47438e-06 10.5111 1.27831 11.7894 2.86315 11.7894H3.36841C3.59174 11.7894 3.80594 11.7007 3.96386 11.5428C4.12178 11.3848 4.21051 11.1706 4.21051 10.9473C4.21051 10.724 4.12178 10.5098 3.96386 10.3519C3.80594 10.1939 3.59174 10.1052 3.36841 10.1052H2.86315C2.20799 10.1052 1.6842 9.58142 1.6842 8.92627V2.86315Z" fill="#BAC0C5"/>
<path d="M5.89502 7.91557C5.89502 7.37956 6.10795 6.8655 6.48697 6.48648C6.86599 6.10746 7.38005 5.89453 7.91606 5.89453H13.9792C14.5152 5.89453 15.0293 6.10746 15.4083 6.48648C15.7873 6.8655 16.0002 7.37956 16.0002 7.91557V13.9787C16.0002 14.5147 15.7873 15.0288 15.4083 15.4078C15.0293 15.7868 14.5152 15.9997 13.9792 15.9997H7.91606C7.38005 15.9997 6.86599 15.7868 6.48697 15.4078C6.10795 15.0288 5.89502 14.5147 5.89502 13.9787V7.91557Z" fill="#BAC0C5"/>
</svg>
