<svg width="16" height="13" viewBox="0 0 16 13" fill="none" xmlns="http://www.w3.org/2000/svg">
<path d="M1.89091 0H14.1091C15.1538 0 16 0.831 16 1.857V11.143C16 12.169 15.1538 13 14.1091 13H1.89091C0.846182 13 0 12.169 0 11.143V1.857C0 0.831 0.846182 0 1.89091 0ZM8.94545 3C8.6947 3 8.45422 3.10536 8.27692 3.29289C8.09961 3.48043 8 3.73478 8 4C8 4.26522 8.09961 4.51957 8.27692 4.70711C8.45422 4.89464 8.6947 5 8.94545 5H13.1636C13.4144 5 13.6549 4.89464 13.8322 4.70711C14.0095 4.51957 14.1091 4.26522 14.1091 4C14.1091 3.73478 14.0095 3.48043 13.8322 3.29289C13.6549 3.10536 13.4144 3 13.1636 3H8.94545ZM8.94545 6C8.6947 6 8.45422 6.10536 8.27692 6.29289C8.09961 6.48043 8 6.73478 8 7C8 7.26522 8.09961 7.51957 8.27692 7.70711C8.45422 7.89464 8.6947 8 8.94545 8H13.1636C13.4144 8 13.6549 7.89464 13.8322 7.70711C14.0095 7.51957 14.1091 7.26522 14.1091 7C14.1091 6.73478 14.0095 6.48043 13.8322 6.29289C13.6549 6.10536 13.4144 6 13.1636 6H8.94545ZM2.83636 3C2.58561 3 2.34513 3.10536 2.16783 3.29289C1.99052 3.48043 1.89091 3.73478 1.89091 4V7C1.89091 7.26522 1.99052 7.51957 2.16783 7.70711C2.34513 7.89464 2.58561 8 2.83636 8H5.67273C5.92348 8 6.16396 7.89464 6.34126 7.70711C6.51857 7.51957 6.61818 7.26522 6.61818 7V4C6.61818 3.73478 6.51857 3.48043 6.34126 3.29289C6.16396 3.10536 5.92348 3 5.67273 3H2.83636Z" fill="#5B9CFF"/>
</svg>
