<svg width="17" height="18" viewBox="0 0 17 18" fill="none" xmlns="http://www.w3.org/2000/svg">
<path d="M7.84615 1.33333V0.666667C7.84615 0.489856 7.91504 0.320286 8.03766 0.195262C8.16028 0.0702379 8.32659 0 8.5 0C8.67341 0 8.83972 0.0702379 8.96234 0.195262C9.08496 0.320286 9.15385 0.489856 9.15385 0.666667V1.33333C9.15385 1.51014 9.08496 1.67971 8.96234 1.80474C8.83972 1.92976 8.67341 2 8.5 2C8.32659 2 8.16028 1.92976 8.03766 1.80474C7.91504 1.67971 7.84615 1.51014 7.84615 1.33333ZM14.3846 4C14.4705 4.00007 14.5556 3.98288 14.6349 3.94942C14.7143 3.91597 14.7864 3.86689 14.8472 3.805L15.5011 3.13833C15.6237 3.01324 15.6927 2.84358 15.6927 2.66667C15.6927 2.48976 15.6237 2.32009 15.5011 2.195C15.3784 2.06991 15.212 1.99963 15.0385 1.99963C14.865 1.99963 14.6986 2.06991 14.5759 2.195L13.922 2.86167C13.8305 2.9549 13.7681 3.07374 13.7428 3.20313C13.7176 3.33252 13.7305 3.46664 13.7801 3.58853C13.8296 3.71041 13.9135 3.81457 14.0211 3.88781C14.1287 3.96106 14.2552 4.0001 14.3846 4ZM2.15279 3.805C2.27548 3.93009 2.44188 4.00037 2.61538 4.00037C2.78889 4.00037 2.95529 3.93009 3.07798 3.805C3.20067 3.67991 3.26959 3.51024 3.26959 3.33333C3.26959 3.15642 3.20067 2.98676 3.07798 2.86167L2.42413 2.195C2.30145 2.06991 2.13505 1.99963 1.96154 1.99963C1.78803 1.99963 1.62163 2.06991 1.49894 2.195C1.37625 2.32009 1.30733 2.48976 1.30733 2.66667C1.30733 2.84358 1.37625 3.01324 1.49894 3.13833L2.15279 3.805ZM17 14.6667V16.6667C17 17.0203 16.8622 17.3594 16.617 17.6095C16.3717 17.8595 16.0391 18 15.6923 18H1.30769C0.960871 18 0.628254 17.8595 0.383014 17.6095C0.137774 17.3594 0 17.0203 0 16.6667V14.6667C0 14.313 0.137774 13.9739 0.383014 13.7239C0.628254 13.4738 0.960871 13.3333 1.30769 13.3333V10.6667C1.30766 9.69892 1.4955 8.74074 1.86036 7.84737C2.22523 6.95399 2.75992 6.14307 3.43359 5.46138C4.10727 4.77968 4.90662 4.24068 5.78556 3.87544C6.66451 3.51021 7.60565 3.32597 8.55476 3.33333C12.4901 3.36333 15.6923 6.69083 15.6923 10.75V13.3333C16.0391 13.3333 16.3717 13.4738 16.617 13.7239C16.8622 13.9739 17 14.313 17 14.6667ZM9.04596 7.32417C10.598 7.59 11.7692 9.02667 11.7692 10.6667C11.7692 10.8435 11.8381 11.013 11.9607 11.1381C12.0834 11.2631 12.2497 11.3333 12.4231 11.3333C12.5965 11.3333 12.7628 11.2631 12.8854 11.1381C13.008 11.013 13.0769 10.8435 13.0769 10.6667C13.0769 8.38333 11.4366 6.38083 9.26173 6.00917C9.17668 5.99383 9.08948 5.99583 9.00519 6.01505C8.9209 6.03426 8.84118 6.07032 8.77063 6.12113C8.70008 6.17194 8.6401 6.2365 8.59417 6.31108C8.54823 6.38566 8.51724 6.46878 8.50298 6.55564C8.48873 6.6425 8.4915 6.73138 8.51113 6.81715C8.53076 6.90291 8.56686 6.98386 8.61734 7.05532C8.66783 7.12677 8.7317 7.18732 8.80527 7.23347C8.87884 7.27961 8.96064 7.31044 9.04596 7.32417ZM15.6923 16.6667V14.6667H1.30769V16.6667H15.6923Z" fill="#334F7C"/>
</svg>
