<svg width="32" height="26" viewBox="0 0 32 26" fill="none" xmlns="http://www.w3.org/2000/svg">
<path d="M31.2 22.75H27.2V5.76109C27.2 4.37679 26.1235 3.24996 24.8 3.24996H19.2V6.49996H24V26H31.2C31.642 26 32 25.6364 32 25.1875V23.5625C32 23.1136 31.642 22.75 31.2 22.75ZM15.612 0.0512397L6.012 2.5771C5.2995 2.76449 4.8 3.43785 4.8 4.21074V22.75H0.8C0.358 22.75 0 23.1136 0 23.5625V25.1875C0 25.6364 0.358 26 0.8 26H17.6V1.68488C17.6 0.589014 16.622 -0.214855 15.612 0.0512397ZM13.2 14.625C12.5375 14.625 12 13.8973 12 13C12 12.1027 12.5375 11.375 13.2 11.375C13.8625 11.375 14.4 12.1027 14.4 13C14.4 13.8973 13.8625 14.625 13.2 14.625Z" fill="#334F7C"/>
</svg>
