<svg width="27" height="18" viewBox="0 0 27 18" fill="none" xmlns="http://www.w3.org/2000/svg">
<path d="M0 5.26893L2.45455 7.58367C8.55409 1.83154 18.4459 1.83154 24.5455 7.58367L27 5.26893C19.5505 -1.75631 7.46182 -1.75631 0 5.26893Z" fill="#BAC0C5"/>
<path d="M5 9.89941L7.45455 12.2142C9.08248 10.6802 11.2896 9.81857 13.5909 9.81857C15.8922 9.81857 18.0993 10.6802 19.7273 12.2142L22.1818 9.89941C17.4445 5.43197 9.74955 5.43197 5 9.89941Z" fill="#252525"/>
<path d="M10 14.5288L13.6818 18.0009L17.3636 14.5288C16.8806 14.0721 16.3067 13.7097 15.675 13.4624C15.0432 13.2152 14.3659 13.0879 13.6818 13.0879C12.9978 13.0879 12.3205 13.2152 11.6887 13.4624C11.0569 13.7097 10.483 14.0721 10 14.5288Z" fill="#252525"/>
</svg>
