<svg width="31" height="31" viewBox="0 0 31 31" fill="none" xmlns="http://www.w3.org/2000/svg">
<path d="M9.44559 17.0604H12.4729V12.0149C12.4729 11.0899 12.7695 10.2983 13.3629 9.64019C13.9562 8.98204 14.6686 8.6524 15.5001 8.65128V5.28764C13.8351 5.28764 12.4098 5.94635 11.2241 7.26378C10.0384 8.5812 9.44559 10.1649 9.44559 12.0149V17.0604ZM3.39104 30.5149C2.55854 30.5149 1.84612 30.1858 1.25379 29.5277C0.661451 28.8695 0.364779 28.0774 0.36377 27.1513V23.7876C0.36377 22.8626 0.660442 22.0711 1.25379 21.4129C1.84713 20.7548 2.55955 20.4251 3.39104 20.424H4.90468V12.0149C4.90468 8.73537 5.93294 5.95364 7.98947 3.66973C10.046 1.38582 12.5496 0.24331 15.5001 0.242188C18.4507 0.241067 20.9548 1.38358 23.0123 3.66973C25.0698 5.95588 26.0976 8.73761 26.0956 12.0149V20.424H27.6092C28.4417 20.424 29.1546 20.7536 29.748 21.4129C30.3413 22.0722 30.6375 22.8638 30.6365 23.7876V27.1513C30.6365 28.0763 30.3403 28.8684 29.748 29.5277C29.1557 30.187 28.4427 30.516 27.6092 30.5149H3.39104Z" fill="#334F7C"/>
</svg>
