<svg width="18" height="24" viewBox="0 0 18 24" fill="none" xmlns="http://www.w3.org/2000/svg">
<path d="M17.2059 6.25928H15.8824C15.7419 6.25928 15.6073 6.20663 15.508 6.11293C15.4087 6.01922 15.3529 5.89213 15.3529 5.75961V4.51045C15.3529 4.37793 15.4087 4.25084 15.508 4.15713C15.6073 4.06343 15.7419 4.01078 15.8824 4.01078H16.6765C16.8871 4.01078 17.0891 3.93182 17.238 3.79126C17.3869 3.6507 17.4706 3.46007 17.4706 3.26129C17.4706 3.06251 17.3869 2.87187 17.238 2.73131C17.0891 2.59076 16.8871 2.51179 16.6765 2.51179H12.3459C12.2281 2.51236 12.1136 2.47507 12.0212 2.40605C11.9288 2.33703 11.8641 2.2404 11.8376 2.13205C11.69 1.52611 11.3289 0.985344 10.8135 0.598095C10.2981 0.210846 9.65878 0 9 0C8.34122 0 7.7019 0.210846 7.18649 0.598095C6.67109 0.985344 6.31005 1.52611 6.16235 2.13205C6.13591 2.2404 6.07118 2.33703 5.97881 2.40605C5.88644 2.47507 5.77193 2.51236 5.65412 2.51179H1.32353C1.11292 2.51179 0.910929 2.59076 0.762003 2.73131C0.613077 2.87187 0.529412 3.06251 0.529412 3.26129C0.529412 3.46007 0.613077 3.6507 0.762003 3.79126C0.910929 3.93182 1.11292 4.01078 1.32353 4.01078H2.11765C2.25806 4.01078 2.39271 4.06343 2.492 4.15713C2.59128 4.25084 2.64706 4.37793 2.64706 4.51045V5.75961C2.64706 5.89213 2.59128 6.01922 2.492 6.11293C2.39271 6.20663 2.25806 6.25928 2.11765 6.25928H0.794118C0.583505 6.25928 0.381518 6.33824 0.232592 6.4788C0.0836656 6.61936 0 6.80999 0 7.00877C0 7.20755 0.0836656 7.39819 0.232592 7.53875C0.381518 7.6793 0.583505 7.75827 0.794118 7.75827H2.11765C2.25806 7.75827 2.39271 7.81091 2.492 7.90462C2.59128 7.99832 2.64706 8.12541 2.64706 8.25793V12.5051C2.64706 15.0834 4.01294 16.0027 5.29412 16.0027H12.7059C13.9871 16.0027 15.3529 15.0834 15.3529 12.5051V8.25793C15.3529 8.12541 15.4087 7.99832 15.508 7.90462C15.6073 7.81091 15.7419 7.75827 15.8824 7.75827H17.2059C17.4165 7.75827 17.6185 7.6793 17.7674 7.53875C17.9163 7.39819 18 7.20755 18 7.00877C18 6.80999 17.9163 6.61936 17.7674 6.4788C17.6185 6.33824 17.4165 6.25928 17.2059 6.25928ZM10.1435 2.38188C10.1234 2.42125 10.0918 2.45438 10.0524 2.47739C10.013 2.5004 9.96749 2.51234 9.92118 2.51179H8.07882C8.03251 2.51234 7.98699 2.5004 7.9476 2.47739C7.90822 2.45438 7.87661 2.42125 7.85647 2.38188C7.83095 2.34467 7.81737 2.30129 7.81737 2.25696C7.81737 2.21264 7.83095 2.16925 7.85647 2.13205C7.97299 1.94333 8.1399 1.78675 8.34055 1.67792C8.5412 1.5691 8.76858 1.51183 9 1.51183C9.23142 1.51183 9.4588 1.5691 9.65945 1.67792C9.8601 1.78675 10.027 1.94333 10.1435 2.13205C10.1691 2.16925 10.1826 2.21264 10.1826 2.25696C10.1826 2.30129 10.1691 2.34467 10.1435 2.38188ZM1.67294 18.7409C0.939577 19.6101 0.454713 20.6423 0.264706 21.7389C0.252912 22.0376 0.306385 22.3354 0.421797 22.6138C0.537209 22.8922 0.712089 23.1452 0.935557 23.357C1.15902 23.5689 1.4263 23.7351 1.72074 23.8452C2.01518 23.9554 2.3305 24.0072 2.64706 23.9974C2.9627 24.0071 3.2771 23.9556 3.5708 23.846C3.86451 23.7365 4.13127 23.5712 4.35458 23.3604C4.57789 23.1497 4.753 22.8979 4.86907 22.6207C4.98515 22.3435 5.03972 22.0468 5.02941 21.7489C4.83941 20.6523 4.35454 19.6201 3.62118 18.7509C3.51135 18.6039 3.36591 18.4837 3.19694 18.4005C3.02797 18.3172 2.84038 18.2733 2.64979 18.2723C2.45919 18.2713 2.2711 18.3134 2.10119 18.3949C1.93127 18.4764 1.78445 18.595 1.67294 18.7409ZM7.94118 18.0014C7.09483 19.0005 6.53349 20.1874 6.31059 21.4491C6.29248 21.7874 6.34956 22.1255 6.47816 22.4418C6.60677 22.758 6.80405 23.0454 7.05734 23.2854C7.31062 23.5254 7.61431 23.7127 7.94887 23.8353C8.28344 23.9579 8.64148 24.0131 9 23.9974C9.35219 24.0085 9.70305 23.9512 10.0308 23.8291C10.3586 23.707 10.6563 23.5227 10.9055 23.2875C11.1547 23.0523 11.35 22.7713 11.4794 22.462C11.6088 22.1526 11.6694 21.8215 11.6576 21.4891C11.4533 20.2155 10.9024 19.0138 10.0588 18.0014C9.94644 17.8321 9.79033 17.6925 9.60512 17.5957C9.41991 17.4989 9.21169 17.4482 9 17.4482C8.78831 17.4482 8.58009 17.4989 8.39488 17.5957C8.20968 17.6925 8.05356 17.8321 7.94118 18.0014ZM14.3788 18.7409C13.6455 19.6101 13.1606 20.6423 12.9706 21.7389C12.9706 22.3352 13.2216 22.9071 13.6684 23.3288C14.1151 23.7505 14.7211 23.9874 15.3529 23.9874C15.9848 23.9874 16.5907 23.7505 17.0375 23.3288C17.4843 22.9071 17.7353 22.3352 17.7353 21.7389C17.5453 20.6423 17.0604 19.6101 16.3271 18.7409C16.2164 18.5944 16.0703 18.4751 15.9008 18.3927C15.7314 18.3103 15.5435 18.2673 15.3529 18.2673C15.1623 18.2673 14.9745 18.3103 14.8051 18.3927C14.6356 18.4751 14.4895 18.5944 14.3788 18.7409Z" fill="#334F7C"/>
</svg>
