<svg width="48" height="33" viewBox="0 0 48 33" fill="none" xmlns="http://www.w3.org/2000/svg">
<path d="M3.66699 19.4513C3.66699 17.515 3.66699 16.5488 4.09726 15.7225C4.52559 14.8982 5.32216 14.3345 6.91338 13.2111L14.9819 7.50961C16.0672 6.74276 16.6138 6.35742 17.234 6.35742C17.8542 6.35742 18.3988 6.74084 19.4861 7.50961L27.5546 13.2092C29.1458 14.3345 29.9424 14.8963 30.3707 15.7225C30.799 16.5488 30.801 17.515 30.801 19.4494V28.9238C30.801 30.7316 30.801 31.6346 30.2331 32.1963C29.6652 32.758 28.7523 32.758 26.9247 32.758H7.54327C5.71561 32.758 4.80274 32.758 4.23487 32.1963C3.66699 31.6346 3.66699 30.7316 3.66699 28.9238V19.4513Z" fill="#E0EBFF"/>
<path d="M0 16.0575C0 16.5673 2.18555e-07 16.8242 0.161 16.9027C0.322 16.9813 0.525167 16.8261 0.927667 16.5098L14.8963 5.64614C16.0272 4.76639 16.5926 4.32748 17.25 4.32748C17.9074 4.32748 18.4728 4.76831 19.6037 5.64614L33.5724 16.5098C33.9749 16.8242 34.178 16.9813 34.339 16.9027C34.5 16.8242 34.5 16.5673 34.5 16.0575V15.2736C34.5 14.3536 34.5 13.8936 34.3045 13.4949C34.109 13.0962 33.7468 12.8126 33.0204 12.2491L19.6037 1.81281C18.4728 0.933057 17.9074 0.494141 17.25 0.494141C16.5926 0.494141 16.0272 0.934974 14.8963 1.81281L1.47967 12.2491C0.753251 12.8126 0.389084 13.0962 0.1955 13.4949C0.00191667 13.8936 0 14.3536 0 15.2736V16.0575ZM18.2083 21.0657H16.2917C15.275 21.0657 14.3 21.4696 13.5811 22.1885C12.8622 22.9074 12.4583 23.8824 12.4583 24.8991V32.2782C12.4583 32.4373 12.5868 32.5658 12.7458 32.5658H21.7542C21.8304 32.5658 21.9036 32.5355 21.9575 32.4815C22.0114 32.4276 22.0417 32.3545 22.0417 32.2782V24.8991C22.0417 23.8824 21.6378 22.9074 20.9189 22.1885C20.2 21.4696 19.225 21.0657 18.2083 21.0657Z" fill="#5B9CFF"/>
<path d="M27.792 1.89453H25.8753C25.3461 1.89453 24.917 2.32359 24.917 2.85287V8.60287C24.917 9.13214 25.3461 9.5612 25.8753 9.5612H27.792C28.3213 9.5612 28.7503 9.13214 28.7503 8.60287V2.85287C28.7503 2.32359 28.3213 1.89453 27.792 1.89453Z" fill="#5B9CFF"/>
<path d="M37.375 5.24414C43.1072 5.24414 47 10.059 47 14.8691C47 18.7736 44.6519 21.9885 42.7061 24.0244L42.7051 24.0264C41.5823 25.1959 40.3479 26.2532 39.0195 27.1826L39.0176 27.1836C38.9122 27.257 38.8193 27.3185 38.7441 27.3672C38.4627 27.5543 38.1694 27.737 37.9102 27.9014L37.375 28.2412L36.8398 27.9014C36.5807 27.737 36.2873 27.5556 36.0078 27.3711L35.998 27.3652L35.7432 27.1924L35.7373 27.1885L35.7305 27.1836C34.4021 26.2542 33.1676 25.1969 32.0449 24.0273L32.043 24.0254C30.0977 21.9873 27.7501 18.7723 27.75 14.8682C27.75 10.0592 31.6429 5.24414 37.375 5.24414ZM37.375 13.2148C36.9364 13.2148 36.5152 13.3891 36.2051 13.6992C35.8949 14.0094 35.7207 14.4305 35.7207 14.8691C35.7207 15.3078 35.8949 15.7289 36.2051 16.0391C36.5152 16.3492 36.9364 16.5234 37.375 16.5234C37.8136 16.5234 38.2348 16.3492 38.5449 16.0391C38.8551 15.7289 39.0293 15.3078 39.0293 14.8691C39.0293 14.4305 38.8551 14.0094 38.5449 13.6992C38.2348 13.3891 37.8136 13.2148 37.375 13.2148Z" fill="#334F7C" stroke="white" stroke-width="2"/>
<path d="M36.5589 26.5368L36.3042 26.3643C35.0291 25.4722 33.8443 24.4575 32.7666 23.3349C30.8731 21.3512 28.75 18.3775 28.75 14.8678C28.75 10.55 32.2544 6.24414 37.375 6.24414C42.4956 6.24414 46 10.55 46 14.8691C46 18.3789 43.8769 21.3525 41.9834 23.3336C40.9057 24.4562 39.7209 25.4708 38.4458 26.363C38.3379 26.4382 38.253 26.4957 38.1911 26.5355C37.9217 26.7146 37.647 26.8844 37.375 27.0569C37.103 26.8844 36.8283 26.7146 36.5589 26.5368ZM37.375 17.523C38.0789 17.523 38.7539 17.2434 39.2516 16.7457C39.7493 16.248 40.0289 15.573 40.0289 14.8691C40.0289 14.1653 39.7493 13.4903 39.2516 12.9926C38.7539 12.4949 38.0789 12.2153 37.375 12.2153C36.6712 12.2153 35.9961 12.4949 35.4985 12.9926C35.0008 13.4903 34.7212 14.1653 34.7212 14.8691C34.7212 15.573 35.0008 16.248 35.4985 16.7457C35.9961 17.2434 36.6712 17.523 37.375 17.523Z" fill="#334F7C"/>
</svg>
