<svg width="27" height="24" viewBox="0 0 27 24" fill="none" xmlns="http://www.w3.org/2000/svg">
<g clip-path="url(#clip0_777_14498)">
<path d="M6 3C6 1.34531 7.34531 0 9 0H18C19.6547 0 21 1.34531 21 3V6H24C25.6547 6 27 7.34531 27 9V21C27 22.6547 25.6547 24 24 24H3C1.34531 24 0 22.6547 0 21V9C0 7.34531 1.34531 6 3 6H6V3ZM12.75 16.5C11.9203 16.5 11.25 17.1703 11.25 18V21.75H15.75V18C15.75 17.1703 15.0797 16.5 14.25 16.5H12.75ZM6 17.25V15.75C6 15.3375 5.6625 15 5.25 15H3.75C3.3375 15 3 15.3375 3 15.75V17.25C3 17.6625 3.3375 18 3.75 18H5.25C5.6625 18 6 17.6625 6 17.25ZM5.25 12C5.6625 12 6 11.6625 6 11.25V9.75C6 9.3375 5.6625 9 5.25 9H3.75C3.3375 9 3 9.3375 3 9.75V11.25C3 11.6625 3.3375 12 3.75 12H5.25ZM24 17.25V15.75C24 15.3375 23.6625 15 23.25 15H21.75C21.3375 15 21 15.3375 21 15.75V17.25C21 17.6625 21.3375 18 21.75 18H23.25C23.6625 18 24 17.6625 24 17.25ZM23.25 12C23.6625 12 24 11.6625 24 11.25V9.75C24 9.3375 23.6625 9 23.25 9H21.75C21.3375 9 21 9.3375 21 9.75V11.25C21 11.6625 21.3375 12 21.75 12H23.25ZM12.375 4.875V6.375H10.875C10.4625 6.375 10.125 6.7125 10.125 7.125V7.875C10.125 8.2875 10.4625 8.625 10.875 8.625H12.375V10.125C12.375 10.5375 12.7125 10.875 13.125 10.875H13.875C14.2875 10.875 14.625 10.5375 14.625 10.125V8.625H16.125C16.5375 8.625 16.875 8.2875 16.875 7.875V7.125C16.875 6.7125 16.5375 6.375 16.125 6.375H14.625V4.875C14.625 4.4625 14.2875 4.125 13.875 4.125H13.125C12.7125 4.125 12.375 4.4625 12.375 4.875Z" fill="#334F7C"/>
</g>
<defs>
<clipPath id="clip0_777_14498">
<rect width="27" height="24" fill="white"/>
</clipPath>
</defs>
</svg>
