<svg width="28" height="28" viewBox="0 0 28 28" fill="none" xmlns="http://www.w3.org/2000/svg">
<path fill-rule="evenodd" clip-rule="evenodd" d="M27.0771 12.0371C27.077 11.4081 26.9456 10.7861 26.6914 10.211C26.4372 9.63597 26.0659 9.12054 25.6012 8.69787C26.3556 6.68471 25.9281 4.22952 24.1296 2.77115C23.3759 2.15958 22.4643 1.77536 21.501 1.66329C20.5378 1.55122 19.5626 1.71592 18.6891 2.13818C18.2532 1.55661 17.695 1.07824 17.0541 0.736937C15.8196 0.0769092 14.3496 -0.0749422 12.9426 0.201698C12.0763 0.370931 11.2615 0.741093 10.5634 1.28256C9.86534 1.82402 9.30344 2.52176 8.92265 3.31992C8.78659 3.2408 8.64749 3.16707 8.50565 3.0989C7.21565 2.48699 5.66915 2.4043 4.13465 3.17859C2.02565 4.24305 0.939649 6.71628 1.36865 8.96699C1.12665 9.18449 0.912649 9.43457 0.726649 9.71722C0.276649 10.4088 0.0771484 11.2072 0.0771484 12.0371C0.0771435 12.4345 0.234149 12.8158 0.513833 13.0976C0.793518 13.3793 1.17312 13.5386 1.56965 13.5406H25.5846C25.9812 13.5386 26.3608 13.3793 26.6405 13.0976C26.9201 12.8158 27.0772 12.4345 27.0771 12.0371ZM16.7421 10.8869C16.5768 10.5243 16.2746 10.2423 15.9018 10.103C15.5291 9.96376 15.1165 9.97857 14.7546 10.1442C14.3926 10.3099 13.9798 10.3246 13.6069 10.1852C13.234 10.0458 12.9317 9.7636 12.7664 9.40074C12.6011 9.03788 12.5864 8.62407 12.7255 8.25033C12.8646 7.8766 13.1461 7.57356 13.5081 7.40788C14.5938 6.91104 15.8319 6.86683 16.9501 7.28497C18.0683 7.70312 18.975 8.54936 19.4706 9.63754C19.6357 10.0004 19.6503 10.4141 19.511 10.7877C19.3718 11.1613 19.0902 11.4642 18.7281 11.6297C18.3661 11.7951 17.9534 11.8097 17.5806 11.6701C17.2079 11.5306 16.9057 11.2483 16.7406 10.8854" fill="#334F7C"/>
<path d="M26.1173 18.3862C26.5403 17.4916 25.8233 16.5459 24.8363 16.5459H2.31826C1.33126 16.5459 0.61426 17.4931 1.03876 18.3862C2.31826 21.0849 4.66426 23.2454 7.54276 24.5083V25.5668C7.54276 25.9655 7.7008 26.3479 7.9821 26.6299C8.26341 26.9119 8.64494 27.0703 9.04276 27.0703H18.1118C18.5096 27.0703 18.8911 26.9119 19.1724 26.6299C19.4537 26.3479 19.6118 25.9655 19.6118 25.5668V24.5083C22.4888 23.2454 24.8363 21.0849 26.1158 18.3862" fill="#334F7C"/>
</svg>
