<svg width="4" height="18" viewBox="0 0 4 18" fill="none" xmlns="http://www.w3.org/2000/svg">
<path d="M2.00004 2.92C2.25465 2.92 2.49883 2.81886 2.67886 2.63882C2.8589 2.45879 2.96004 2.21461 2.96004 1.96C2.96004 1.70539 2.8589 1.46121 2.67886 1.28118C2.49883 1.10114 2.25465 1 2.00004 1C1.74543 1 1.50125 1.10114 1.32122 1.28118C1.14118 1.46121 1.04004 1.70539 1.04004 1.96C1.04004 2.21461 1.14118 2.45879 1.32122 2.63882C1.50125 2.81886 1.74543 2.92 2.00004 2.92ZM2.00004 9.96C2.25465 9.96 2.49883 9.85886 2.67886 9.67882C2.8589 9.49879 2.96004 9.25461 2.96004 9C2.96004 8.74539 2.8589 8.50121 2.67886 8.32118C2.49883 8.14114 2.25465 8.04 2.00004 8.04C1.74543 8.04 1.50125 8.14114 1.32122 8.32118C1.14118 8.50121 1.04004 8.74539 1.04004 9C1.04004 9.25461 1.14118 9.49879 1.32122 9.67882C1.50125 9.85886 1.74543 9.96 2.00004 9.96ZM2.00004 17C2.25465 17 2.49883 16.8989 2.67886 16.7188C2.8589 16.5388 2.96004 16.2946 2.96004 16.04C2.96004 15.7854 2.8589 15.5412 2.67886 15.3612C2.49883 15.1811 2.25465 15.08 2.00004 15.08C1.74543 15.08 1.50125 15.1811 1.32122 15.3612C1.14118 15.5412 1.04004 15.7854 1.04004 16.04C1.04004 16.2946 1.14118 16.5388 1.32122 16.7188C1.50125 16.8989 1.74543 17 2.00004 17Z" fill="#252525" stroke="#252525" stroke-width="1.5" stroke-linecap="round" stroke-linejoin="round"/>
</svg>
