<svg width="26" height="36" viewBox="0 0 26 36" fill="none" xmlns="http://www.w3.org/2000/svg">
<path d="M4.25 0.5H21.75C22.6783 0.5 23.5685 0.868749 24.2249 1.52513C24.8813 2.1815 25.25 3.07174 25.25 4V12.75H0.75V4C0.75 3.07174 1.11875 2.1815 1.77513 1.52513C2.4315 0.868749 3.32174 0.5 4.25 0.5ZM25.25 30.25C25.25 31.1783 24.8813 32.0685 24.2249 32.7249C23.5685 33.3812 22.6783 33.75 21.75 33.75V35.5H18.25V33.75H7.75V35.5H4.25V33.75C3.32174 33.75 2.4315 33.3812 1.77513 32.7249C1.11875 32.0685 0.75 31.1783 0.75 30.25V14.5H25.25V30.25ZM6 5.75V9.25H9.5V5.75H6ZM6 18V23.25H9.5V18H6Z" fill="#334F7C"/>
</svg>
