<svg width="16" height="16" viewBox="0 0 16 16" fill="none" xmlns="http://www.w3.org/2000/svg">
<path fill-rule="evenodd" clip-rule="evenodd" d="M7.14913 1.71457C5.70812 1.71457 4.32613 2.28706 3.30718 3.3061C2.28823 4.32513 1.71579 5.70724 1.71579 7.14838C1.71579 8.58951 2.28823 9.97162 3.30718 10.9907C4.32613 12.0097 5.70812 12.5822 7.14913 12.5822C8.59014 12.5822 9.97214 12.0097 10.9911 10.9907C12.01 9.97162 12.5825 8.58951 12.5825 7.14838C12.5825 5.70724 12.01 4.32513 10.9911 3.3061C9.97214 2.28706 8.59014 1.71457 7.14913 1.71457ZM6.79644e-08 7.14838C0.000215574 6.02125 0.266882 4.91015 0.778241 3.90573C1.2896 2.9013 2.03116 2.03201 2.94242 1.36879C3.85368 0.705568 4.90882 0.267202 6.02175 0.0894598C7.13467 -0.088282 8.27385 -0.000363231 9.34632 0.346043C10.4188 0.692448 11.3942 1.28753 12.1929 2.08272C12.9916 2.87792 13.5911 3.8507 13.9423 4.9217C14.2935 5.99269 14.3865 7.13156 14.2138 8.24536C14.0411 9.35917 13.6076 10.4164 12.9485 11.3307L15.6789 14.0613C15.8873 14.2771 16.0026 14.566 16 14.866C15.9974 15.1659 15.8771 15.4528 15.665 15.6649C15.4529 15.877 15.166 15.9974 14.8661 16C14.5662 16.0026 14.2772 15.8873 14.0615 15.6789L11.3311 12.9482C10.2634 13.7184 9.00379 14.1787 7.69116 14.2785C6.37852 14.3783 5.06381 14.1138 3.89195 13.5139C2.72009 12.9141 1.73659 12.0023 1.04985 10.8791C0.363119 9.75594 -0.000181421 8.46491 6.79644e-08 7.14838Z" fill="#9CA2A8"/>
</svg>
