<svg width="15" height="22" viewBox="0 0 15 22" fill="none" xmlns="http://www.w3.org/2000/svg">
<path d="M14.375 2.0625C14.7188 2.0625 15 1.75313 15 1.375V0.6875C15 0.309375 14.7188 0 14.375 0H0.625C0.28125 0 0 0.309375 0 0.6875V1.375C0 1.75313 0.28125 2.0625 0.625 2.0625H1.25V8.7957C0.460937 9.22969 0 9.74961 0 10.3125C0 13.2 1.35156 15.7352 3.39062 17.209L2.55469 20.2254C2.30859 21.1063 2.91016 22 3.75 22H11.25C12.0898 22 12.6914 21.1063 12.4453 20.2254L11.6094 17.209C13.6484 15.7352 15 13.2 15 10.3125C15 9.74961 14.5391 9.22969 13.75 8.7957V2.0625H14.375ZM3.125 3.09375C3.125 2.90469 3.26562 2.75 3.4375 2.75H5.3125C5.48437 2.75 5.625 2.90469 5.625 3.09375V3.78125C5.625 3.97031 5.48437 4.125 5.3125 4.125H3.4375C3.26562 4.125 3.125 3.97031 3.125 3.78125V3.09375ZM7.5 11.6875C4.48828 11.6875 2.04688 11.073 2.04688 10.3125C2.04688 9.55195 4.48828 8.9375 7.5 8.9375C10.5117 8.9375 12.9531 9.55195 12.9531 10.3125C12.9531 11.073 10.5117 11.6875 7.5 11.6875Z" fill="#334F7C"/>
</svg>
