<svg width="16" height="16" viewBox="0 0 16 16" fill="none" xmlns="http://www.w3.org/2000/svg">
<path d="M4.11335 0.40937C4.22501 0.597547 4.25527 0.821175 4.19748 1.03106C4.13968 1.24094 3.99856 1.41989 3.80516 1.52854C2.92917 2.02289 2.15096 2.66548 1.50718 3.42606C1.43814 3.51258 1.35197 3.58474 1.25377 3.6383C1.15557 3.69185 1.04733 3.7257 0.935445 3.73785C0.823565 3.75 0.710318 3.74019 0.602399 3.70902C0.494481 3.67784 0.394082 3.62593 0.307141 3.55635C0.220199 3.48677 0.148479 3.40093 0.0962221 3.30392C0.0439651 3.2069 0.0122318 3.10068 0.00289887 2.99152C-0.00643409 2.88236 0.00682281 2.7725 0.0418854 2.66841C0.076948 2.56433 0.133105 2.46814 0.207034 2.38554C0.977217 1.47228 1.91026 0.701561 2.96142 0.110323C3.05716 0.0563668 3.1629 0.0213009 3.27259 0.00712935C3.38228 -0.00704224 3.49376 -4.15673e-05 3.60066 0.0277313C3.70757 0.0555041 3.8078 0.103504 3.89562 0.168988C3.98345 0.234472 4.05715 0.316156 4.11251 0.40937H4.11335ZM13.0678 0.110323C14.1192 0.701236 15.0525 1.47168 15.8231 2.38472C15.9575 2.5532 16.0191 2.76606 15.9948 2.97805C15.9705 3.19003 15.8622 3.38444 15.6929 3.51994C15.5235 3.65544 15.3066 3.72135 15.0881 3.70367C14.8697 3.68599 14.6669 3.5861 14.5229 3.42524C13.8804 2.66371 13.1019 2.02119 12.2249 1.52854C12.0316 1.41968 11.8907 1.24056 11.8331 1.0306C11.7756 0.820639 11.8061 0.597028 11.918 0.40896C12.0299 0.220893 12.214 0.0837736 12.4298 0.0277682C12.6456 -0.0282372 12.8745 0.00145856 13.0678 0.110323ZM8.01546 4.52967C7.80922 4.52969 7.61015 4.60337 7.45602 4.73672C7.3019 4.87007 7.20343 5.05382 7.1793 5.25311L7.1734 5.34897V8.61473C7.17088 8.79662 7.23066 8.97523 7.3435 9.12024L7.41929 9.20545L9.19267 10.9301C9.34385 11.0786 9.54765 11.1653 9.76236 11.1724C9.97707 11.1794 10.1864 11.1064 10.3476 10.9682C10.5088 10.83 10.6096 10.6371 10.6294 10.429C10.6492 10.2209 10.5865 10.0132 10.4541 9.84861L10.3833 9.77159L8.85753 8.28701V5.34897C8.85753 5.13168 8.76881 4.92329 8.61089 4.76964C8.45297 4.61599 8.23879 4.52967 8.01546 4.52967Z" fill="#5B9CFF"/>
<path opacity="0.3" d="M8.01541 1.25195C13.8492 1.25195 17.4953 7.39676 14.5784 12.3126C13.9133 13.4335 12.9566 14.3644 11.8046 15.0115C10.6525 15.6587 9.34569 15.9994 8.01541 15.9995C2.18161 15.9995 -1.46451 9.85468 1.45239 4.93884C2.11753 3.81791 3.0742 2.88708 4.22625 2.2399C5.3783 1.59272 6.68513 1.25199 8.01541 1.25195Z" fill="#5B9CFF"/>
</svg>
