<svg width="25" height="30" viewBox="0 0 25 30" fill="none" xmlns="http://www.w3.org/2000/svg">
<path d="M16.1126 5.62522C17.683 5.62522 18.956 4.36599 18.956 2.81261C18.956 1.25923 17.683 0 16.1126 0C14.5422 0 13.2692 1.25923 13.2692 2.81261C13.2692 4.36599 14.5422 5.62522 16.1126 5.62522ZM6.73473 18.6025L5.85801 20.6252H1.8956C0.848875 20.6252 0 21.4649 0 22.5003C0 23.5357 0.848875 24.3754 1.8956 24.3754H6.48356C7.62388 24.3754 8.65047 23.705 9.09653 22.6708L9.61723 21.4684L8.98516 21.0993C7.95917 20.4998 7.20448 19.6127 6.73473 18.6025ZM22.7473 13.1249H20.139L18.5953 10.0047C17.8548 8.50756 16.4953 7.41298 14.9356 7.0198L10.725 5.78109C9.04855 5.38263 7.30282 5.74886 5.9362 6.78542L3.58625 8.56733C2.75514 9.19723 2.59757 10.3738 3.23556 11.1959C3.87355 12.018 5.06245 12.1722 5.89296 11.5428L8.2441 9.76093C8.69845 9.4158 9.27721 9.29216 9.74104 9.40115L10.6118 9.65721L8.39279 14.7779C7.64521 16.5053 8.31519 18.5287 9.95074 19.4838L14.9848 22.4235L13.3575 27.5642C13.0447 28.5521 13.601 29.6039 14.5997 29.9133C14.7887 29.9719 14.9794 30 15.1672 30C15.9734 30 16.721 29.4861 16.9751 28.6845L18.8494 22.7628C19.1995 21.5458 18.6782 20.2385 17.5675 19.5758L13.9398 17.4581L15.7945 12.8712L16.9953 15.2988C17.4692 16.2563 18.4715 16.8745 19.549 16.8745H22.7473C23.794 16.8745 24.6429 16.0348 24.6429 14.9994C24.6429 13.964 23.794 13.1249 22.7473 13.1249Z" fill="#334F7C"/>
</svg>
