<svg width="26" height="34" viewBox="0 0 26 34" fill="none" xmlns="http://www.w3.org/2000/svg">
<path d="M4.6536 1.66777L7.28239 0.875201C8.14998 0.614041 9.08294 0.677406 9.90725 1.05348C10.7316 1.42955 11.3909 2.09264 11.7623 2.91906L13.6053 7.01763C13.9252 7.72867 14.0143 8.52203 13.8603 9.28633C13.7062 10.0506 13.3166 10.7475 12.7462 11.2791L9.94103 13.8929C9.5651 14.2498 9.8501 15.6409 11.2235 18.0213C12.5983 20.4031 13.661 21.345 14.1509 21.1984L17.826 20.0747C18.571 19.8468 19.3686 19.8578 20.107 20.106C20.8454 20.3543 21.4876 20.8274 21.9436 21.459L24.5629 25.0893C25.0919 25.8224 25.3369 26.7226 25.2523 27.6227C25.1677 28.5228 24.7592 29.3616 24.1028 29.9832L22.078 31.9008C21.4243 32.5199 20.6181 32.9544 19.7417 33.1602C18.8653 33.3659 17.9499 33.3355 17.0891 33.0721C12.8467 31.7733 8.91774 27.919 5.24939 21.5635C1.57289 15.1985 0.184532 9.82963 1.15217 5.44334C1.34734 4.55951 1.77468 3.74371 2.39015 3.08005C3.00563 2.41639 3.78696 1.92888 4.6536 1.66777Z" fill="#5B9CFF"/>
</svg>
