<svg width="26" height="27" viewBox="0 0 26 27" fill="none" xmlns="http://www.w3.org/2000/svg">
<path fill-rule="evenodd" clip-rule="evenodd" d="M20.2231 1.50402e-07C20.952 -0.000239369 21.6541 0.28561 22.1886 0.800245C22.7231 1.31488 23.0505 2.02027 23.1051 2.775L23.1124 3V24H24.557C24.9252 24.0004 25.2793 24.1468 25.5471 24.4093C25.8148 24.6717 25.9759 25.0304 25.9975 25.4121C26.0191 25.7938 25.8995 26.1696 25.6632 26.4627C25.4269 26.7559 25.0916 26.9443 24.726 26.9895L24.557 27H1.44302C1.07482 26.9996 0.720664 26.8532 0.452924 26.5907C0.185183 26.3283 0.0240633 25.9696 0.0024848 25.5879C-0.0190937 25.2062 0.100498 24.8304 0.336824 24.5373C0.57315 24.2441 0.908373 24.0557 1.274 24.0105L1.44302 24H2.88764V3C2.88741 2.24314 3.16271 1.51415 3.65835 0.959178C4.15398 0.404206 4.83333 0.0642651 5.5602 0.00750032L5.77689 1.50402e-07H20.2231ZM16.6116 12C16.327 12 16.0452 12.0582 15.7823 12.1713C15.5194 12.2843 15.2805 12.4501 15.0793 12.659C14.8781 12.8679 14.7185 13.116 14.6096 13.389C14.5007 13.6619 14.4446 13.9545 14.4446 14.25C14.4446 14.5455 14.5007 14.8381 14.6096 15.111C14.7185 15.384 14.8781 15.6321 15.0793 15.841C15.2805 16.0499 15.5194 16.2157 15.7823 16.3287C16.0452 16.4418 16.327 16.5 16.6116 16.5C17.1863 16.5 17.7374 16.2629 18.1438 15.841C18.5502 15.419 18.7785 14.8467 18.7785 14.25C18.7785 13.6533 18.5502 13.081 18.1438 12.659C17.7374 12.2371 17.1863 12 16.6116 12Z" fill="#334F7C"/>
</svg>
