<svg width="40" height="40" viewBox="0 0 40 40" fill="none" xmlns="http://www.w3.org/2000/svg">
<path fill-rule="evenodd" clip-rule="evenodd" d="M33.1218 20.5002L19.7335 33.8302C17.9491 35.5723 15.5492 36.5397 13.0555 36.5221C10.5618 36.5044 8.17587 35.5031 6.41636 33.736C4.65684 31.9688 3.666 29.5785 3.65921 27.0847C3.65243 24.5909 4.63026 22.1953 6.38013 20.4186L19.7685 7.08856C21.5528 5.34644 23.9527 4.37907 26.4464 4.39672C28.9401 4.41438 31.3261 5.41563 33.0856 7.18283C34.8451 8.95003 35.8359 11.3403 35.8427 13.8341C35.8495 16.3278 34.8717 18.7235 33.1218 20.5002ZM30.7885 9.47022C29.6412 8.31954 28.0842 7.67114 26.4593 7.66739C24.8344 7.66364 23.2744 8.30484 22.1218 9.45022L8.7318 22.7802C7.57965 23.9273 6.93037 25.4851 6.92677 27.1108C6.92318 28.7366 7.56557 30.2972 8.71263 31.4494C9.85969 32.6015 11.4175 33.2508 13.0432 33.2544C14.669 33.258 16.2297 32.6156 17.3818 31.4686L30.7701 18.1386C31.9213 16.9912 32.57 15.4338 32.5738 13.8085C32.5775 12.1832 31.936 10.6229 30.7901 9.47022H30.7885Z" fill="#334F7C"/>
<path fill-rule="evenodd" clip-rule="evenodd" d="M13.53 14.2067C13.8425 13.8943 14.2664 13.7188 14.7083 13.7188C15.1502 13.7188 15.5741 13.8943 15.8866 14.2067L25.97 24.2901C26.2736 24.6044 26.4416 25.0254 26.4378 25.4624C26.434 25.8994 26.2587 26.3174 25.9497 26.6264C25.6407 26.9354 25.2226 27.1107 24.7856 27.1145C24.3486 27.1183 23.9276 26.9503 23.6133 26.6467L13.53 16.5634C13.2175 16.2508 13.042 15.827 13.042 15.3851C13.042 14.9431 13.2175 14.5193 13.53 14.2067Z" fill="#334F7C"/>
<rect x="25.7988" y="4.75195" width="13.3333" height="16.1708" transform="rotate(42.7841 25.7988 4.75195)" fill="#334F7C"/>
</svg>
