<svg width="14" height="22" viewBox="0 0 14 22" fill="none" xmlns="http://www.w3.org/2000/svg">
<path d="M12.0523 7L13.125 5.95892L7.27896 0.288431C7.18529 0.197026 7.0739 0.124485 6.9512 0.0749847C6.8285 0.025484 6.69691 2.92731e-07 6.56402 2.86922e-07C6.43112 2.81113e-07 6.29954 0.0254839 6.17684 0.0749846C6.05414 0.124485 5.94275 0.197026 5.84908 0.288431L0 5.95892L1.07267 6.99902L6.5625 1.67686L12.0523 7Z" fill="#5B9CFF"/>
<path d="M12.0523 15L13.125 16.0411L7.27896 21.7116C7.18529 21.803 7.0739 21.8755 6.9512 21.925C6.8285 21.9745 6.69691 22 6.56402 22C6.43112 22 6.29954 21.9745 6.17684 21.925C6.05414 21.8755 5.94275 21.803 5.84908 21.7116L0 16.0411L1.07267 15.001L6.5625 20.3231L12.0523 15Z" fill="#5B9CFF"/>
</svg>
